
<svg width="163px" height="29px" viewBox="0 0 163 29" version="1.1" xmlns="http://www.w3.org/2000/svg" xmlns:xlink="http://www.w3.org/1999/xlink">
    <defs>
        <polygon id="path-1" points="7.5183551e-06 0.18676 11.842382 0.18676 11.842382 27.8397166 7.5183551e-06 27.8397166"></polygon>
        <polygon id="path-3" points="0 28.233472 162.73466 28.233472 162.73466 0.580232 0 0.580232"></polygon>
    </defs>
    <g id="Symbols" stroke="none" stroke-width="1" fill="none" fill-rule="evenodd">
        <g id="#footer" transform="translate(-669.000000, -302.000000)">
            <g id="logo">
                <g transform="translate(669.000000, 302.000000)">
                    <path d="M35.1828,7.017304 L35.1828,15.065384 L27.18344,15.065384 L27.18344,8.060724 C27.18344,7.484784 26.71654,7.017304 26.14002,7.017304 L23.44012,7.017304 L23.44012,26.282004 C23.44012,26.857944 23.9076,27.325424 24.48354,27.325424 L27.18344,27.325424 L27.18344,18.336584 L35.1828,18.336584 L35.1828,26.282004 C35.1828,26.857944 35.65028,27.325424 36.22622,27.325424 L38.92612,27.325424 L38.92612,8.060724 C38.92612,7.484784 38.45864,7.017304 37.8827,7.017304 L35.1828,7.017304 Z" id="Fill-1" fill="#707070"></path>
                    <path d="M51.056936,12.05327 L51.056936,21.70621 C51.056936,22.58317 50.609756,23.41431 49.849956,23.85337 C47.730636,25.07833 45.537076,23.54829 45.537076,21.53105 L45.537076,13.09669 C45.537076,12.52017 45.069596,12.05327 44.493656,12.05327 L41.782736,12.05327 L41.782736,12.05327 L41.782736,21.87557 C41.782736,25.03541 44.368376,27.62105 47.528796,27.62105 L49.065216,27.62105 C52.225636,27.62105 54.811276,25.03541 54.811276,21.87499 L54.811276,13.09669 C54.811276,12.52017 54.343796,12.05327 53.767856,12.05327 L51.056936,12.05327 Z" id="Fill-3" fill="#707070"></path>
                    <path d="M92.006096,27.32525 L94.705996,27.32525 L94.705996,13.65581 C94.705996,13.07929 94.239096,12.61181 93.662576,12.61181 L90.962676,12.61181 L90.962676,26.28183 C90.962676,26.85835 91.429576,27.32525 92.006096,27.32525" id="Fill-5" fill="#707070"></path>
                    <path d="M92.83422,11.168538 C93.98784,11.168538 94.92338,10.232998 94.92338,9.079378 C94.92338,7.925758 93.98784,6.990218 92.83422,6.990218 C91.6806,6.990218 90.74506,7.925758 90.74506,9.079378 C90.74506,10.232998 91.6806,11.168538 92.83422,11.168538" id="Fill-7" fill="#707070"></path>
                    <path d="M67.862494,21.157356 C67.862494,23.014516 66.342894,24.250496 64.485734,24.250496 C62.629154,24.250496 61.108974,23.014516 61.108974,21.157356 L61.108974,18.507336 C61.108974,16.650176 62.629154,15.413616 64.485734,15.413616 C66.342894,15.413616 67.862494,16.650176 67.862494,18.507336 L67.862494,21.157356 Z M64.485734,12.043816 L64.485734,12.043816 C60.559714,12.043816 57.347094,14.852176 57.347094,18.778776 L57.347094,20.902736 C57.347094,24.829336 60.559714,27.620876 64.485734,27.620876 C68.412334,27.620876 71.624954,24.829336 71.624954,20.902736 L71.624954,18.778776 C71.624954,14.852176 68.412334,12.043816 64.485734,12.043816 L64.485734,12.043816 Z" id="Fill-9" fill="#707070"></path>
                    <path d="M84.675128,21.157356 C84.675128,23.014516 83.155528,24.250496 81.298368,24.250496 C79.441208,24.250496 77.921608,23.014516 77.921608,21.157356 L77.921608,18.507336 C77.921608,16.650176 79.441208,15.413616 81.298368,15.413616 C83.155528,15.413616 84.675128,16.650176 84.675128,18.507336 L84.675128,21.157356 Z M81.298368,12.043816 L81.298368,12.043816 C80.071668,12.043816 78.913988,12.318156 77.902468,12.815216 L77.902468,8.081256 C77.902468,7.504736 77.435568,7.037256 76.859048,7.037256 L74.159148,7.037256 L74.159148,20.902736 C74.159148,24.829336 77.371768,27.620876 81.298368,27.620876 C85.224968,27.620876 88.437588,24.829336 88.437588,20.902736 L88.437588,18.778776 C88.437588,14.852176 85.224968,12.043816 81.298368,12.043816 L81.298368,12.043816 Z" id="Fill-11" fill="#707070"></path>
                    <g id="Group-15" transform="translate(0.000000, 0.393472)">
                        <mask id="mask-2" fill="white">
                            <use xlink:href="#path-1"></use>
                        </mask>
                        <g id="Clip-14"></g>
                        <path d="M11.842382,8.697158 C11.842382,4.727058 9.908662,1.312598 8.437202,0.200738 C8.431402,0.196678 8.324682,0.136938 8.333382,0.295858 C8.333962,0.298178 8.331642,0.298758 8.331642,0.300498 C8.209262,7.966938 4.293102,10.044498 2.139562,12.843578 C-2.828718,19.302458 1.792142,26.384258 6.497682,27.692738 C9.130882,28.425278 5.889842,26.397018 5.472242,22.113138 C4.967642,16.936058 11.842382,12.983358 11.842382,8.697158" id="Fill-13" fill="#707070" mask="url(#mask-2)"></path>
                    </g>
                    <path d="M14.42402,11.70063 C14.39154,11.68033 14.3463,11.66583 14.3144,11.71513 C14.22798,12.68025 13.17586,14.74447 11.84244,16.63991 C7.3196,23.06979 9.89712,26.16873 11.34654,27.83333 C12.18812,28.80019 11.34654,27.83333 13.44962,26.84617 C13.61434,26.76845 17.5537,24.69901 17.98,19.98245 C18.39354,15.41553 15.4657,12.53699 14.42402,11.70063" id="Fill-16" fill="#707070"></path>
                    <path d="M129.950218,14.036812 C129.950218,12.284052 131.265658,10.962232 133.009138,10.962232 L135.467178,10.962232 C137.211818,10.962232 138.527258,12.284052 138.527258,14.036812 C138.527258,15.789572 137.211818,17.111392 135.467178,17.111392 L133.009138,17.111392 C131.265658,17.111392 129.950218,15.789572 129.950218,14.036812 M141.945778,23.770372 L135.744998,23.770372 L135.744998,19.921492 C138.930358,19.676152 141.272398,17.230292 141.272398,14.036812 C141.272398,10.668172 138.668778,8.127772 135.215458,8.127772 L133.245778,8.127772 C129.801738,8.127772 127.204498,10.668172 127.204498,14.036812 C127.204498,17.234932 129.547698,19.682532 132.731898,19.922072 L132.731898,23.770372 L124.693678,23.770372 L124.693678,24.646752 C124.693678,25.660592 125.517858,26.485352 126.530538,26.485352 L143.783798,26.485352 L143.783798,25.607812 C143.783798,24.594552 142.959038,23.770372 141.945778,23.770372" id="Fill-18" fill="#707070"></path>
                    <path d="M159.75143,6.854208 L159.75143,26.683828 C159.75143,27.278908 160.23399,27.761468 160.82849,27.761468 L162.73437,27.761468 L162.73437,7.931848 C162.73437,7.336768 162.25239,6.854208 161.65673,6.854208 L159.75143,6.854208 Z" id="Fill-20" fill="#707070"></path>
                    <mask id="mask-4" fill="white">
                        <use xlink:href="#path-3"></use>
                    </mask>
                    <g id="Clip-23"></g>
                    <path d="M149.234,20.729432 L153.83804,20.729432 L153.83804,17.297572 L149.234,17.297572 L149.234,20.729432 Z M153.83804,14.328552 L149.234,14.328552 L149.234,9.262252 C149.234,8.667172 148.75144,8.184612 148.15636,8.184612 L146.24062,8.184612 L146.24062,22.366772 C146.24062,22.961852 146.72318,23.444412 147.31768,23.444412 L155.7532,23.444412 C156.34828,23.444412 156.83084,22.961852 156.83084,22.366772 L156.83084,9.262252 C156.83084,8.667172 156.34828,8.184612 155.7532,8.184612 L153.83804,8.184612 L153.83804,14.328552 Z" id="Fill-22" fill="#707070" mask="url(#mask-4)"></path>
                    <path d="M120.124786,8.501002 L114.812566,8.501002 L114.812566,7.851982 C114.812566,7.256902 114.330006,6.980822 113.734926,6.980822 L111.799466,6.980822 L111.799466,8.501002 L105.409606,8.501002 L105.409606,9.830942 C105.409606,10.426022 105.892166,10.908582 106.487246,10.908582 L121.202426,10.908582 L121.202426,9.578642 C121.202426,8.983562 120.719866,8.501002 120.124786,8.501002" id="Fill-24" fill="#707070" mask="url(#mask-4)"></path>
                    <path d="M103.760724,21.48929 L103.760724,23.12721 C103.760724,23.72229 104.243284,24.20485 104.838364,24.20485 L111.799524,24.20485 L111.799524,26.62113 C111.799524,27.21621 112.282084,27.69877 112.877164,27.69877 L114.812624,27.69877 L114.812624,24.20485 L122.851424,24.20485 L122.851424,22.56693 C122.851424,21.97185 122.368864,21.48929 121.773784,21.48929 L103.760724,21.48929 Z" id="Fill-25" fill="#707070" mask="url(#mask-4)"></path>
                    <path d="M110.435538,16.191686 C110.435538,15.245126 111.262038,14.558406 112.401738,14.558406 L114.330238,14.558406 C115.469938,14.558406 116.296438,15.245126 116.296438,16.191686 C116.296438,17.137666 115.469938,17.824386 114.330238,17.824386 L112.401738,17.824386 C111.262038,17.824386 110.435538,17.137666 110.435538,16.191686 L110.435538,16.191686 Z M112.587338,11.938546 C109.637458,11.938546 107.412578,13.766706 107.412578,16.191686 C107.412578,18.616086 109.637458,20.444246 112.587338,20.444246 L114.133038,20.444246 C117.089878,20.444246 119.319398,18.616086 119.319398,16.191686 C119.319398,13.766706 117.089878,11.938546 114.133038,11.938546 L112.587338,11.938546 Z" id="Fill-26" fill="#707070" mask="url(#mask-4)"></path>
                </g>
            </g>
        </g>
    </g>
</svg>