
<svg width="46px" height="50px" viewBox="0 0 46 50" version="1.1" xmlns="http://www.w3.org/2000/svg" xmlns:xlink="http://www.w3.org/1999/xlink">
    <g id="Page-1" stroke="none" stroke-width="1" fill="none" fill-rule="evenodd">
        <g id="main-copy-18" transform="translate(-1825.000000, -3275.000000)">
            <g id="分组-2" transform="translate(0.000000, 2755.000000)">
                <g id="ISOIEC-27001---CERTIFIED-positive-RGB-Copy" transform="translate(1826.000000, 521.000000)">
                    <polygon id="Stroke-2" stroke="#B6B6B6" stroke-width="0.725759976" points="0.2068 47.793868 43.8200889 47.793868 43.8200889 0.177624365 0.2068 0.177624365"></polygon>
                    <path d="M6.59486667,33.0349645 C8.02706667,33.0349645 8.81906667,32.1731574 8.81906667,31.0810964 C8.81906667,30.535066 8.59466667,30.0879594 8.19206667,29.7392893 L7.72346667,30.1600812 C7.99406667,30.403736 8.15246667,30.6866193 8.15246667,31.0679391 C8.15246667,31.7852589 7.55846667,32.2521015 6.57506667,32.2521015 C5.60486667,32.2521015 5.01086667,31.7457868 5.01086667,31.0416244 C5.01086667,30.712934 5.14946667,30.4692792 5.36726667,30.2456041 L4.89206667,29.8245685 C4.60166667,30.0942944 4.34426667,30.5219086 4.34426667,31.0484467 C4.34426667,32.1534213 5.18246667,33.0349645 6.59486667,33.0349645 Z M8.73986667,29.0353706 L8.73986667,26.3841624 L8.09306667,26.3841624 L8.09306667,28.2722437 L6.81926667,28.2722437 L6.81926667,26.7262538 L6.17246667,26.7262538 L6.17246667,28.2722437 L5.07026667,28.2722437 L5.07026667,26.4499492 L4.42346667,26.4499492 L4.42346667,29.0353706 L8.73986667,29.0353706 Z M5.03726667,24.7592284 L5.03726667,24.1539898 C5.03726667,23.5619086 5.20886667,23.246132 5.70386667,23.246132 C6.19226667,23.246132 6.44306667,23.5619086 6.44306667,24.1539898 L6.44306667,24.7592284 L5.03726667,24.7592284 Z M8.73986667,22.3251168 L6.93806667,23.3513909 C6.75986667,22.8316751 6.36386667,22.4895838 5.70386667,22.4895838 C4.74026667,22.4895838 4.42346667,23.1803452 4.42346667,24.0750457 L4.42346667,25.5223553 L8.73986667,25.5223553 L8.73986667,24.7592284 L7.05026667,24.7592284 L7.05026667,24.1079391 L8.73986667,23.1803452 L8.73986667,22.3251168 Z M8.73986667,20.8646497 L8.73986667,20.1015228 L5.07026667,20.1015228 L5.07026667,18.864731 L4.42346667,18.864731 L4.42346667,22.1080203 L5.07026667,22.1080203 L5.07026667,20.8646497 L8.73986667,20.8646497 Z M4.42346667,18.1608122 L8.73986667,18.1608122 L8.73986667,17.3976853 L4.42346667,17.3976853 L4.42346667,18.1608122 Z M8.73986667,16.3253604 L8.73986667,15.5622335 L6.93806667,15.5622335 L6.93806667,14.0030863 L6.29126667,14.0030863 L6.29126667,15.5622335 L5.07026667,15.5622335 L5.07026667,13.7267817 L4.42346667,13.7267817 L4.42346667,16.3253604 L8.73986667,16.3253604 Z M4.42346667,12.9965482 L8.73986667,12.9965482 L8.73986667,12.2334213 L4.42346667,12.2334213 L4.42346667,12.9965482 Z M8.73986667,11.1610964 L8.73986667,8.50988832 L8.09306667,8.50988832 L8.09306667,10.3979695 L6.81926667,10.3979695 L6.81926667,8.8519797 L6.17246667,8.8519797 L6.17246667,10.3979695 L5.07026667,10.3979695 L5.07026667,8.57567513 L4.42346667,8.57567513 L4.42346667,11.1610964 L8.73986667,11.1610964 Z M8.73986667,7.64808122 L8.73986667,6.46391878 C8.73986667,5.18765482 7.99406667,4.40479188 6.56186667,4.40479188 C5.13626667,4.40479188 4.42346667,5.18765482 4.42346667,6.50339086 L4.42346667,7.64808122 L8.73986667,7.64808122 Z M8.11946667,6.88495431 L5.04386667,6.88495431 L5.04386667,6.5560203 C5.04386667,5.68763452 5.50586667,5.18765482 6.56186667,5.18765482 C7.62446667,5.18765482 8.11946667,5.68763452 8.11946667,6.5560203 L8.11946667,6.88495431 L8.11946667,6.88495431 Z" id="Fill-3" fill="#B6B6B6"></path>
                    <polygon id="Fill-4" fill="#B6B6B6" points="13.3520444 32.9182538 39.4562667 32.9182538 39.4562667 4.30148223 13.3520444 4.30148223"></polygon>
                    <polyline id="Fill-5" fill="#202020" points="29.8874889 26.749401 20.1026222 26.749401 20.1026222 7.12714721 17.5442667 7.12714721 17.5442667 28.9732386 29.8874889 28.9732386 29.8874889 26.749401"></polyline>
                    <path d="M33.2229333,13.6356548 C33.2229333,16.387736 31.2930444,17.9612589 28.0074667,17.9612589 L25.0892889,17.9612589 L34.1090444,28.9790863 L37.2298667,28.9790863 L29.8131778,19.9709239 C33.5216444,19.6463756 35.7646667,17.1184569 35.7646667,13.6356548 C35.7646667,9.55930964 33.0090444,7.12544162 28.3492,7.12544162 L25.0976,7.12544162 L25.0976,9.34099492 L28.1062222,9.34099492 C31.3915556,9.34099492 33.2229333,10.9062335 33.2229333,13.6356548" id="Fill-6" fill="#202020"></path>
                    <path d="M4.34426667,41.870132 L5.08615556,41.870132 L5.08615556,37.7002234 L4.34426667,37.7002234 L4.34426667,41.870132 Z M7.17786667,41.9466396 C8.11824444,41.9466396 8.6812,41.3855025 8.6812,40.7096041 C8.6812,40.1038782 8.32944444,39.7915127 7.83688889,39.5809949 L7.26757778,39.3451371 C6.92217778,39.2047919 6.6022,39.0836954 6.6022,38.7586599 C6.6022,38.4523858 6.86448889,38.2676954 7.26122222,38.2676954 C7.61933333,38.2676954 7.90068889,38.4014619 8.16957778,38.6246497 L8.547,38.152934 C8.22066667,37.8276548 7.74717778,37.6237157 7.26122222,37.6237157 C6.44233333,37.6237157 5.85371111,38.1336853 5.85371111,38.7969137 C5.85371111,39.4089746 6.28882222,39.7340102 6.69826667,39.9062741 L7.27393333,40.1550457 C7.65135556,40.3143959 7.92,40.4228223 7.92,40.7671066 C7.92,41.0921421 7.66406667,41.3026599 7.19082222,41.3026599 C6.80704444,41.3026599 6.40395556,41.1113909 6.10328889,40.8307005 L5.66817778,41.3345787 C6.06491111,41.7234518 6.61491111,41.9466396 7.17786667,41.9466396 Z M10.8753333,41.9466396 C11.9692222,41.9466396 12.7240667,41.1177259 12.7240667,39.7659289 C12.7240667,38.4207107 11.9692222,37.6237157 10.8753333,37.6237157 C9.7878,37.6237157 9.03295556,38.4207107 9.03295556,39.7659289 C9.03295556,41.1177259 9.7878,41.9466396 10.8753333,41.9466396 Z M10.8753333,41.3026599 C10.2165556,41.3026599 9.79415556,40.703269 9.79415556,39.7659289 C9.79415556,38.8351675 10.2165556,38.2676954 10.8753333,38.2676954 C11.5341111,38.2676954 11.9562667,38.8351675 11.9562667,39.7659289 C11.9562667,40.703269 11.5341111,41.3026599 10.8753333,41.3026599 Z M12.8198889,42.8903147 L13.3188,42.8903147 L14.8094222,37.3430254 L14.3102667,37.3430254 L12.8198889,42.8903147 Z M15.2826667,41.870132 L16.0248,41.870132 L16.0248,37.7002234 L15.2826667,37.7002234 L15.2826667,41.870132 Z M16.8945333,41.870132 L19.4790444,41.870132 L19.4790444,41.2451574 L17.6366667,41.2451574 L17.6366667,40.0147005 L19.14,40.0147005 L19.14,39.3897259 L17.6366667,39.3897259 L17.6366667,38.3249543 L19.415,38.3249543 L19.415,37.7002234 L16.8945333,37.7002234 L16.8945333,41.870132 Z M21.8137333,41.9466396 C22.3510222,41.9466396 22.7924889,41.7297868 23.1315333,41.3409137 L22.7348,40.875533 C22.4981778,41.1303959 22.2104667,41.3026599 21.8394,41.3026599 C21.1356444,41.3026599 20.6878222,40.7288528 20.6878222,39.7788426 C20.6878222,38.8415025 21.1740222,38.2676954 21.8584667,38.2676954 C22.1848,38.2676954 22.4341333,38.414132 22.6516889,38.6309848 L23.0484222,38.152934 C22.7861333,37.8722437 22.3639778,37.6237157 21.8394,37.6237157 C20.7838889,37.6237157 19.9266222,38.4333807 19.9266222,39.7978477 C19.9266222,41.1815635 20.7582222,41.9466396 21.8137333,41.9466396 Z M24.4363778,41.870132 L27.1868667,41.870132 L27.1868667,41.2451574 L26.1890444,41.2451574 C25.9908,41.2451574 25.7221556,41.2707411 25.5109556,41.2899898 C26.3171333,40.4418274 26.9886222,39.702335 26.9886222,38.9816041 C26.9886222,38.2294416 26.4833556,37.7384772 25.7028444,37.7384772 C25.1464889,37.7384772 24.7754222,37.968 24.4043556,38.3632081 L24.8138,38.7713299 C25.0313556,38.5291371 25.2936444,38.3186193 25.6070222,38.3186193 C26.0418889,38.3186193 26.2787556,38.592731 26.2787556,39.0201015 C26.2787556,39.6384975 25.5686444,40.3526497 24.4363778,41.4430051 L24.4363778,41.870132 Z M28.3575111,41.870132 L29.106,41.870132 C29.1764,40.2888122 29.3426222,39.4408934 30.2957111,38.2611168 L30.2957111,37.8149848 L27.5642889,37.8149848 L27.5642889,38.4333807 L29.4897778,38.4333807 C28.7029111,39.523736 28.4279111,40.4291574 28.3575111,41.870132 Z M32.01,41.9466396 C32.8543111,41.9466396 33.3916,41.1942335 33.3916,39.8234315 C33.3916,38.4589645 32.8543111,37.7384772 32.01,37.7384772 C31.1656889,37.7384772 30.6284,38.4523858 30.6284,39.8234315 C30.6284,41.1942335 31.1656889,41.9466396 32.01,41.9466396 Z M32.01,41.3728325 C31.6198667,41.3728325 31.3319111,40.9710457 31.3319111,39.8234315 C31.3319111,38.6755736 31.6198667,38.3122843 32.01,38.3122843 C32.4064889,38.3122843 32.6880889,38.6755736 32.6880889,39.8234315 C32.6880889,40.9710457 32.4064889,41.3728325 32.01,41.3728325 Z M35.0995333,41.9466396 C35.9438444,41.9466396 36.4813778,41.1942335 36.4813778,39.8234315 C36.4813778,38.4589645 35.9438444,37.7384772 35.0995333,37.7384772 C34.2552222,37.7384772 33.7179333,38.4523858 33.7179333,39.8234315 C33.7179333,41.1942335 34.2552222,41.9466396 35.0995333,41.9466396 Z M35.0995333,41.3728325 C34.7094,41.3728325 34.4214444,40.9710457 34.4214444,39.8234315 C34.4214444,38.6755736 34.7094,38.3122843 35.0995333,38.3122843 C35.4962667,38.3122843 35.7776222,38.6755736 35.7776222,39.8234315 C35.7776222,40.9710457 35.4962667,41.3728325 35.0995333,41.3728325 Z M37.0250222,41.870132 L39.4748444,41.870132 L39.4748444,41.2707411 L38.6752667,41.2707411 L38.6752667,37.8149848 L38.1252667,37.8149848 C37.8693333,37.968 37.5877333,38.0698477 37.1848889,38.1463553 L37.1848889,38.6056447 L37.9333778,38.6056447 L37.9333778,41.2707411 L37.0250222,41.2707411 L37.0250222,41.870132 L37.0250222,41.870132 Z" id="Fill-7" fill="#B6B6B6"></path>
                </g>
            </g>
        </g>
    </g>
</svg>