
<svg width="40px" height="50px" viewBox="0 0 40 50" version="1.1" xmlns="http://www.w3.org/2000/svg" xmlns:xlink="http://www.w3.org/1999/xlink">
    <g id="Page-1" stroke="none" stroke-width="1" fill="none" fill-rule="evenodd">
        <g id="main-copy-18" transform="translate(-1881.000000, -3275.000000)">
            <g id="分组-2" transform="translate(0.000000, 2755.000000)">
                <g id="分组-copy" transform="translate(1882.000000, 521.000000)">
                    <polygon id="Stroke-39" stroke="#B6B6B6" stroke-width="0.5" points="7.10542736e-15 47.8427463 37.8396762 47.8427463 37.8396762 0 7.10542736e-15 0"></polygon>
                    <path d="M25.0289714,9.57886567 C25.0890476,9.37647761 25.2985905,9.25002985 25.5030667,9.30913433 C25.7079048,9.36823881 25.8258857,9.57958209 25.7661714,9.78232836 C25.7064571,9.98471642 25.4701333,10.1007761 25.2652952,10.0423881" id="Fill-3" fill="#FFFFFF"></path>
                    <path d="M25.0289714,9.57886567 C25.0890476,9.37647761 25.2985905,9.25002985 25.5030667,9.30913433 C25.7079048,9.36823881 25.8258857,9.57958209 25.7661714,9.78232836 C25.7064571,9.98471642 25.4701333,10.1007761 25.2652952,10.0423881" id="Fill-4" fill="#000000"></path>
                    <path d="M25.0289714,9.57886567 C25.0890476,9.37647761 25.2985905,9.25002985 25.5030667,9.30913433 C25.7079048,9.36823881 25.8258857,9.57958209 25.7661714,9.78232836 C25.7064571,9.98471642 25.4701333,10.1007761 25.2652952,10.0423881" id="Stroke-5" stroke="#B6B6B6" stroke-width="0.5"></path>
                    <path d="M25.6452952,9.12573134 C25.4321333,9.12573134 25.2598667,8.95522388 25.2598667,8.74459701 C25.2598667,8.53289552 25.4321333,8.36238806 25.6452952,8.36238806 C25.858819,8.36238806 26.0310857,8.53289552 26.0310857,8.74459701 C26.0310857,8.95522388 25.858819,9.12573134 25.6452952,9.12573134" id="Fill-6" fill="#000000"></path>
                    <path d="M25.6452952,9.12573134 C25.4321333,9.12573134 25.2598667,8.95522388 25.2598667,8.74459701 C25.2598667,8.53289552 25.4321333,8.36238806 25.6452952,8.36238806 C25.858819,8.36238806 26.0310857,8.53289552 26.0310857,8.74459701 C26.0310857,8.95522388 25.858819,9.12573134 25.6452952,9.12573134 Z" id="Stroke-7" stroke="#B6B6B6" stroke-width="0.5"></path>
                    <path d="M25.6170667,8.09802985 C25.4046286,8.09802985 25.2312762,7.92644776 25.2312762,7.7158209 C25.2312762,7.50519403 25.4046286,7.33325373 25.6170667,7.33325373 C25.8302286,7.33325373 26.003219,7.50519403 26.003219,7.7158209 C26.003219,7.92644776 25.8302286,8.09802985 25.6170667,8.09802985" id="Fill-8" fill="#FFFFFF"></path>
                    <path d="M25.6170667,8.09802985 C25.4046286,8.09802985 25.2312762,7.92644776 25.2312762,7.7158209 C25.2312762,7.50519403 25.4046286,7.33325373 25.6170667,7.33325373 C25.8302286,7.33325373 26.003219,7.50519403 26.003219,7.7158209 C26.003219,7.92644776 25.8302286,8.09802985 25.6170667,8.09802985" id="Fill-9" fill="#000000"></path>
                    <path d="M25.6170667,8.09802985 C25.4046286,8.09802985 25.2312762,7.92644776 25.2312762,7.7158209 C25.2312762,7.50519403 25.4046286,7.33325373 25.6170667,7.33325373 C25.8302286,7.33325373 26.003219,7.50519403 26.003219,7.7158209 C26.003219,7.92644776 25.8302286,8.09802985 25.6170667,8.09802985 Z" id="Stroke-10" stroke="#B6B6B6" stroke-width="0.5"></path>
                    <path d="M25.2486476,7.17170149 C25.0358476,7.17170149 24.863219,7.00119403 24.863219,6.78949254 C24.863219,6.57886567 25.0358476,6.40835821 25.2486476,6.40835821 C25.4621714,6.40835821 25.6348,6.57886567 25.6348,6.78949254 C25.6348,7.00119403 25.4621714,7.17170149 25.2486476,7.17170149" id="Fill-11" fill="#FFFFFF"></path>
                    <path d="M25.2486476,7.17170149 C25.0358476,7.17170149 24.863219,7.00119403 24.863219,6.78949254 C24.863219,6.57886567 25.0358476,6.40835821 25.2486476,6.40835821 C25.4621714,6.40835821 25.6348,6.57886567 25.6348,6.78949254 C25.6348,7.00119403 25.4621714,7.17170149 25.2486476,7.17170149" id="Fill-12" fill="#000000"></path>
                    <path d="M25.2486476,7.17170149 C25.0358476,7.17170149 24.863219,7.00119403 24.863219,6.78949254 C24.863219,6.57886567 25.0358476,6.40835821 25.2486476,6.40835821 C25.4621714,6.40835821 25.6348,6.57886567 25.6348,6.78949254 C25.6348,7.00119403 25.4621714,7.17170149 25.2486476,7.17170149 Z" id="Stroke-13" stroke="#B6B6B6" stroke-width="0.5"></path>
                    <polyline id="Fill-14" fill="#B6B6B6" points="12.847981 17.7936716 12.847981 25.232597 18.0988571 31.0416716 28.4978286 15.7551045 28.3950476 10.150209 18.0988571 24.6207761 12.847981 17.7936716"></polyline>
                    <path d="M7.79615238,35.9444776 C7.79615238,35.1488955 7.81135238,34.7509254 7.81135238,34.2204179 C7.81135238,33.438806 7.79615238,32.945194 7.78167619,32.7008955 C7.98217143,32.7238209 8.19099048,32.7388657 8.39257143,32.7388657 C8.59342857,32.7388657 8.80188571,32.7238209 9.00274286,32.7008955 C8.90539048,33.6598209 8.89887619,34.4263881 8.89887619,35.2814328 C8.89887619,37.0807164 9.42001905,37.3744478 10.3877524,37.3744478 C11.5795048,37.3744478 11.6616571,36.0999403 11.6616571,34.7283582 C11.6616571,34.0506269 11.639219,33.3793433 11.601581,32.7008955 C11.7289714,32.7238209 11.8549143,32.7388657 11.981219,32.7388657 C12.1082476,32.7388657 12.2273143,32.7238209 12.353981,32.7008955 C12.3087429,33.1361194 12.2566286,34.1903284 12.2566286,35.4655522 C12.2566286,37.1763582 11.5049524,37.8831045 10.0605905,37.8831045 C8.78668571,37.8831045 7.79615238,37.3303881 7.79615238,35.9444776 Z M16.1054857,35.4730746 C16.1054857,36.5344478 16.1054857,37.3232239 16.1644762,37.7878209 C16.0008952,37.7727761 15.8004,37.7505672 15.5543048,37.7505672 C15.3085714,37.7505672 15.1077143,37.7727761 14.9434095,37.7878209 C14.9882857,37.1387463 15.0034857,36.5713433 15.0034857,35.7456716 L15.0034857,34.7430448 C15.0034857,33.9177313 14.9882857,33.3499701 14.9434095,32.7008955 C15.1077143,32.7170149 15.3085714,32.7388657 15.5543048,32.7388657 C15.8004,32.7388657 16.0008952,32.7170149 16.1644762,32.7008955 C16.1054857,33.0931343 16.1054857,34.1018507 16.1054857,35.0528955 C16.7753714,34.2716418 17.7434667,33.0777313 18.0044,32.7008955 C18.1455429,32.7170149 18.2798095,32.7388657 18.4213143,32.7388657 C18.555581,32.7388657 18.6974476,32.7170149 18.8675429,32.7008955 C18.5331429,33.032597 17.3341524,34.345791 16.9469143,34.8243582 C17.5874857,35.7829254 18.578019,37.2641194 18.9797333,37.7878209 C18.6891238,37.7727761 18.4734286,37.7505672 18.2577333,37.7505672 C18.0416762,37.7505672 17.825981,37.7727761 17.6102857,37.7878209 C17.1177333,37.0137313 16.6114286,36.2396418 16.1206857,35.4730746 L16.1054857,35.4730746 Z M25.3083619,37.7878209 C25.0702286,37.7727761 24.8610476,37.7505672 24.6529524,37.7505672 C24.4444952,37.7505672 24.2288,37.7727761 24.019981,37.7878209 C23.8636381,37.2863284 23.6924571,36.7776716 23.5057143,36.2768955 C23.1857905,36.2690149 22.8734667,36.2618507 22.552819,36.2618507 C22.2926095,36.2618507 22.0392762,36.2690149 21.7787048,36.2768955 C21.5778476,36.7776716 21.4135429,37.2784478 21.2724,37.7878209 C21.1526095,37.7727761 21.0415048,37.7505672 20.9224381,37.7505672 C20.8022857,37.7505672 20.691181,37.7727761 20.5504,37.7878209 C20.9148381,36.9693134 22.0316762,34.345791 22.6715238,32.6647164 C22.7688762,32.6797612 22.8582667,32.7008955 22.955619,32.7008955 C23.0518857,32.7008955 23.1412762,32.6797612 23.2382667,32.6647164 C23.8708762,34.345791 24.741981,36.5856716 25.3083619,37.7878209 Z M23.3348952,35.8416716 C23.1188381,35.2445373 22.910019,34.6620896 22.6715238,34.0871642 C22.4192762,34.6620896 22.188019,35.2445373 21.9726857,35.8416716 L23.3348952,35.8416716 Z M29.7616,33.6963582 C29.6052571,33.2772537 29.3142857,33.0619701 28.8604571,33.0619701 C28.4059048,33.0619701 28.085619,33.3721791 28.085619,33.7260896 C28.085619,34.817194 30.3496952,34.5442388 30.3496952,36.2174328 C30.3496952,37.2057313 29.5607429,37.8831045 28.3758667,37.8831045 C27.8398857,37.8831045 27.3932952,37.7283582 27.1776,37.5664478 C27.2742286,37.2268657 27.341181,36.961791 27.3932952,36.6300896 L27.5344381,36.6300896 C27.6158667,37.057791 27.9593143,37.4267463 28.5618857,37.4267463 C29.1431048,37.4267463 29.4337143,37.0864478 29.4337143,36.6748657 C29.4337143,35.5608358 27.2141524,35.8567164 27.2141524,34.1831642 C27.2141524,33.1658507 28.0031048,32.6056119 28.8897714,32.6056119 C29.4261143,32.6056119 29.8285524,32.7453134 30.1112,32.9663284 C30.0221714,33.1952239 29.9696952,33.3721791 29.8734286,33.6963582 L29.7616,33.6963582 Z" id="合并形状" fill="#B6B6B6"></path>
                    <path d="M5.67104762,40.3984478 C5.58527619,41.007403 5.54908571,41.6206567 5.50782857,42.2299701 C5.44304762,42.2181493 5.37754286,42.2099104 5.31674286,42.2099104 C5.2512381,42.2099104 5.19007619,42.2181493 5.12493333,42.2299701 C5.29575238,41.302209 5.43038095,40.3740896 5.54474286,39.4459701 C5.60192381,39.4581493 5.6547619,39.4663881 5.71194286,39.4663881 C5.76478095,39.4663881 5.8219619,39.4581493 5.8748,39.4459701 C6.17264762,40.0875224 6.51899048,40.8057313 6.8168381,41.3749254 C7.13857143,40.7734925 7.47297143,40.0875224 7.76647619,39.4459701 C7.82329524,39.4581493 7.88445714,39.4663881 7.9416381,39.4663881 C7.99881905,39.4663881 8.0556381,39.4581493 8.11281905,39.4459701 C8.21885714,40.3740896 8.36180952,41.6611343 8.46350476,42.2299701 C8.35348571,42.2181493 8.24310476,42.2099104 8.13308571,42.2099104 C8.02342857,42.2099104 7.90906667,42.2181493 7.79506667,42.2299701 C7.76647619,41.6690149 7.69699048,40.983403 7.63184762,40.3579701 L7.62352381,40.3579701 C7.31807619,40.983403 7.01660952,41.6048955 6.72274286,42.2299701 C6.69849524,42.2260299 6.66990476,42.2220896 6.64529524,42.2220896 C6.62104762,42.2220896 6.59245714,42.2260299 6.56784762,42.2299701 C6.27832381,41.6206567 5.98518095,41.007403 5.67937143,40.3984478 L5.67104762,40.3984478 Z M11.2128952,42.2299701 C11.0826095,42.2220896 10.9682476,42.2099104 10.8542476,42.2099104 C10.7402476,42.2099104 10.6219048,42.2220896 10.5075429,42.2299701 C10.4221333,41.9555821 10.3284,41.6772537 10.2263429,41.4032239 C10.051181,41.3989254 9.88,41.3949851 9.70447619,41.3949851 C9.56224762,41.3949851 9.42327619,41.3989254 9.28104762,41.4032239 C9.17066667,41.6772537 9.08091429,41.9516418 9.00346667,42.2299701 C8.93832381,42.2220896 8.8771619,42.2099104 8.81201905,42.2099104 C8.74651429,42.2099104 8.68571429,42.2220896 8.60826667,42.2299701 C8.8080381,41.782209 9.41929524,40.345791 9.76998095,39.4259104 C9.82281905,39.4341493 9.8720381,39.4459701 9.92487619,39.4459701 C9.97771429,39.4459701 10.0269333,39.4341493 10.0797714,39.4259104 C10.4261143,40.345791 10.9031048,41.5722985 11.2128952,42.2299701 Z M10.1326095,41.1650149 C10.0142667,40.8383284 9.90026667,40.5191642 9.76998095,40.2046567 C9.63137143,40.5191642 9.50506667,40.8383284 9.3863619,41.1650149 L10.1326095,41.1650149 Z M11.5856571,39.4459701 C11.646819,39.4581493 11.707981,39.4663881 11.7691429,39.4663881 C11.8303048,39.4663881 11.8914667,39.4581493 11.9526286,39.4459701 C12.5396381,40.0875224 13.1223048,40.7251343 13.721619,41.3666866 C13.721619,40.7251343 13.721619,39.6275821 13.6930286,39.4459701 C13.7545524,39.4581493 13.8153524,39.4663881 13.8765143,39.4663881 C13.9380381,39.4663881 13.9988381,39.4581493 14.06,39.4459701 C13.9948571,40.6201791 13.9948571,41.1567761 13.9948571,42.2299701 C13.9380381,42.2181493 13.8848381,42.2099104 13.8276571,42.2099104 C13.7704762,42.2099104 13.7176381,42.2181493 13.668781,42.2299701 C13.1103619,41.576597 12.5150286,40.9225075 11.8871238,40.2691343 C11.8791619,40.5718209 11.8791619,40.9067463 11.8791619,41.2090746 C11.8791619,41.8549254 11.8914667,42.0809552 11.9034095,42.2299701 C11.8382667,42.2181493 11.7731238,42.2099104 11.7119619,42.2099104 C11.6508,42.2099104 11.5856571,42.2181493 11.5244952,42.2299701 C11.5447619,42.113194 11.6059238,41.0722388 11.6059238,40.2490746 C11.6059238,39.8858507 11.59,39.6397612 11.5856571,39.4459701 Z M16.9071048,42.2299701 C16.776819,42.2220896 16.662819,42.2099104 16.5484571,42.2099104 C16.4344571,42.2099104 16.3161143,42.2220896 16.2017524,42.2299701 C16.1167048,41.9555821 16.0226095,41.6772537 15.9205524,41.4032239 C15.7453905,41.3989254 15.5745714,41.3949851 15.3990476,41.3949851 C15.2564571,41.3949851 15.1174857,41.3989254 14.9752571,41.4032239 C14.8648762,41.6772537 14.7754857,41.9516418 14.6980381,42.2299701 C14.6325333,42.2220896 14.5713714,42.2099104 14.5062286,42.2099104 C14.4410857,42.2099104 14.3799238,42.2220896 14.3024762,42.2299701 C14.5022476,41.782209 15.1138667,40.345791 15.4641905,39.4259104 C15.5173905,39.4341493 15.5662476,39.4459701 15.6190857,39.4459701 C15.6722857,39.4459701 15.7211429,39.4341493 15.773981,39.4259104 C16.1206857,40.345791 16.5973143,41.5722985 16.9071048,42.2299701 Z M15.827181,41.1650149 C15.7088381,40.8383284 15.5948381,40.5191642 15.4641905,40.2046567 C15.325581,40.5191642 15.1992762,40.8383284 15.0809333,41.1650149 L15.827181,41.1650149 Z M19.4154667,40.047403 C19.2442857,39.8052537 18.9833524,39.6437015 18.6124,39.6437015 C18.106819,39.6437015 17.5849524,40.0592239 17.5849524,40.9067463 C17.5849524,41.5482985 17.9479429,42.0322388 18.5758476,42.0322388 C18.7144571,42.0322388 18.9547619,42.0039403 19.0202667,41.9598806 C19.0322095,41.8950448 19.0322095,41.7943881 19.0322095,41.6772537 C19.0322095,41.2416716 19.0076,41.0600597 19.003619,40.983403 C19.0564571,40.9916418 19.1382476,41.0034627 19.3054476,41.0034627 C19.5008762,41.0034627 19.5826667,40.9916418 19.6355048,40.983403 C19.6152381,41.0682985 19.6029333,41.4032239 19.6029333,41.6611343 C19.6029333,41.8305672 19.6069143,42.0444179 19.6152381,42.1049552 C19.2605714,42.2059701 18.8856381,42.2826269 18.5266286,42.2826269 C17.5889333,42.2826269 16.9165143,41.7539104 16.9165143,40.9307463 C16.9165143,39.9059104 17.6461143,39.3936716 18.6040762,39.3936716 C19.0159238,39.3936716 19.2931429,39.4825075 19.5866476,39.6358209 C19.5421333,39.7726567 19.4968952,39.910209 19.4722857,40.047403 L19.4154667,40.047403 Z M20.1595429,40.5635821 C20.1595429,40.1118806 20.151219,39.8009552 20.1269714,39.4459701 C20.3672762,39.4499104 20.6122857,39.4663881 20.8522286,39.4663881 C21.2521333,39.4663881 21.5944952,39.4581493 21.7045143,39.4459701 C21.6965524,39.4943284 21.6882286,39.5426866 21.6882286,39.6157612 C21.6882286,39.7002985 21.6965524,39.7364776 21.7045143,39.7970149 C21.3947238,39.7769552 20.9054286,39.7486567 20.7831048,39.7486567 C20.7628381,40.0431045 20.7628381,40.3339701 20.7628381,40.6284179 C21.1175048,40.6201791 21.3784381,40.6122985 21.6882286,40.5958209 C21.6719429,40.6889552 21.6679619,40.7251343 21.6679619,40.7774328 C21.6679619,40.8218507 21.6759238,40.8583881 21.6882286,40.9432836 C21.3784381,40.9189254 21.0726286,40.9067463 20.7628381,40.9067463 C20.7628381,41.0758209 20.7588571,41.2499104 20.7588571,41.4232836 C20.7588571,41.5923582 20.7628381,41.7660896 20.7711619,41.9272836 C21.0769714,41.9272836 21.390381,41.9115224 21.7045143,41.8749851 C21.6965524,41.9315821 21.6882286,41.9717015 21.6882286,42.056597 C21.6882286,42.1414925 21.6965524,42.1816119 21.7045143,42.2299701 C21.557581,42.2260299 21.3661333,42.2099104 20.9912,42.2099104 C20.3267429,42.2099104 20.2167238,42.2220896 20.1269714,42.2299701 C20.151219,41.8749851 20.1595429,41.5644179 20.1595429,41.1123582 L20.1595429,40.5635821 Z M22.5003429,40.3984478 C22.4149333,41.007403 22.378381,41.6206567 22.3371238,42.2299701 C22.2723429,42.2181493 22.2072,42.2099104 22.1460381,42.2099104 C22.0805333,42.2099104 22.0197333,42.2181493 21.9542286,42.2299701 C22.1254095,41.302209 22.2596762,40.3740896 22.3740381,39.4459701 C22.431219,39.4581493 22.484419,39.4663881 22.5416,39.4663881 C22.5940762,39.4663881 22.6512571,39.4581493 22.7040952,39.4459701 C23.0019429,40.0875224 23.3482857,40.8057313 23.6461333,41.3749254 C23.9678667,40.7734925 24.3022667,40.0875224 24.5957714,39.4459701 C24.6529524,39.4581493 24.7137524,39.4663881 24.7709333,39.4663881 C24.8281143,39.4663881 24.8852952,39.4581493 24.9421143,39.4459701 C25.0481524,40.3740896 25.1911048,41.6611343 25.2928,42.2299701 C25.182781,42.2181493 25.0727619,42.2099104 24.9627429,42.2099104 C24.8527238,42.2099104 24.7383619,42.2181493 24.6243619,42.2299701 C24.5957714,41.6690149 24.5266476,40.983403 24.4611429,40.3579701 L24.452819,40.3579701 C24.1473714,40.983403 23.8459048,41.6048955 23.5520381,42.2299701 C23.5277905,42.2260299 23.4992,42.2220896 23.4745905,42.2220896 C23.4503429,42.2220896 23.4217524,42.2260299 23.3971429,42.2299701 C23.107981,41.6206567 22.8144762,41.007403 22.5086667,40.3984478 L22.5003429,40.3984478 Z M25.7064571,40.5635821 C25.7064571,40.1118806 25.6984952,39.8009552 25.6738857,39.4459701 C25.9141905,39.4499104 26.1592,39.4663881 26.3995048,39.4663881 C26.7990476,39.4663881 27.1414095,39.4581493 27.2514286,39.4459701 C27.2434667,39.4943284 27.2351429,39.5426866 27.2351429,39.6157612 C27.2351429,39.7002985 27.2434667,39.7364776 27.2514286,39.7970149 C26.9416381,39.7769552 26.4523429,39.7486567 26.330019,39.7486567 C26.3097524,40.0431045 26.3097524,40.3339701 26.3097524,40.6284179 C26.664419,40.6201791 26.9253524,40.6122985 27.2351429,40.5958209 C27.2188571,40.6889552 27.2148762,40.7251343 27.2148762,40.7774328 C27.2148762,40.8218507 27.2232,40.8583881 27.2351429,40.9432836 C26.9253524,40.9189254 26.6195429,40.9067463 26.3097524,40.9067463 C26.3097524,41.0758209 26.3057714,41.2499104 26.3057714,41.4232836 C26.3057714,41.5923582 26.3097524,41.7660896 26.3180762,41.9272836 C26.6238857,41.9272836 26.9376571,41.9115224 27.2514286,41.8749851 C27.2434667,41.9315821 27.2351429,41.9717015 27.2351429,42.056597 C27.2351429,42.1414925 27.2434667,42.1816119 27.2514286,42.2299701 C27.1044952,42.2260299 26.9134095,42.2099104 26.5381143,42.2099104 C25.8736571,42.2099104 25.7636381,42.2220896 25.6738857,42.2299701 C25.6984952,41.8749851 25.7064571,41.5644179 25.7064571,41.1123582 L25.7064571,40.5635821 Z M27.7334857,39.4459701 C27.7946476,39.4581493 27.8558095,39.4663881 27.9169714,39.4663881 C27.9781333,39.4663881 28.0392952,39.4581493 28.1000952,39.4459701 C28.6874667,40.0875224 29.2701333,40.7251343 29.8694476,41.3666866 C29.8694476,40.7251343 29.8694476,39.6275821 29.8408571,39.4459701 C29.902381,39.4581493 29.963181,39.4663881 30.0243429,39.4663881 C30.0855048,39.4663881 30.1466667,39.4581493 30.2078286,39.4459701 C30.1426857,40.6201791 30.1426857,41.1567761 30.1426857,42.2299701 C30.0855048,42.2181493 30.0326667,42.2099104 29.9754857,42.2099104 C29.9183048,42.2099104 29.8654667,42.2181493 29.8166095,42.2299701 C29.2581905,41.576597 28.6628571,40.9225075 28.0349524,40.2691343 C28.0269905,40.5718209 28.0269905,40.9067463 28.0269905,41.2090746 C28.0269905,41.8549254 28.0392952,42.0809552 28.0512381,42.2299701 C27.9860952,42.2181493 27.9209524,42.2099104 27.8597905,42.2099104 C27.7986286,42.2099104 27.7334857,42.2181493 27.6723238,42.2299701 C27.6925905,42.113194 27.7537524,41.0722388 27.7537524,40.2490746 C27.7537524,39.8858507 27.7374667,39.6397612 27.7334857,39.4459701 Z M31.3141714,40.1036418 C31.3141714,39.9503284 31.3141714,39.8052537 31.3022286,39.7486567 C31.1433524,39.7486567 30.8006286,39.7726567 30.5563429,39.8009552 C30.5682857,39.7407761 30.5766095,39.6841791 30.5766095,39.6236418 C30.5766095,39.5631045 30.5682857,39.5065075 30.5563429,39.4459701 C30.9269333,39.4581493 31.110419,39.4663881 31.6163619,39.4663881 C32.121581,39.4663881 32.3050667,39.4581493 32.6517714,39.4459701 C32.6391048,39.5065075 32.6311429,39.5631045 32.6311429,39.6236418 C32.6311429,39.6841791 32.6391048,39.7407761 32.6517714,39.8009552 C32.4313714,39.7726567 32.0886476,39.7486567 31.9261524,39.7486567 C31.9178286,39.8052537 31.9178286,39.9503284 31.9178286,40.1036418 L31.9178286,41.1123582 C31.9178286,41.5644179 31.9261524,41.8749851 31.9504,42.2299701 C31.8606476,42.2220896 31.7502667,42.2099104 31.6163619,42.2099104 C31.4817333,42.2099104 31.3713524,42.2220896 31.2819619,42.2299701 C31.3062095,41.8749851 31.3141714,41.5644179 31.3141714,41.1123582 L31.3141714,40.1036418 Z M12.464,43.6438209 C12.3785905,43.4138507 12.2197143,43.2967164 11.9707238,43.2967164 C11.7220952,43.2967164 11.5469333,43.4661493 11.5469333,43.6599403 C11.5469333,44.2570746 12.7860952,44.1073433 12.7860952,45.0236418 C12.7860952,45.5641791 12.353981,45.9356418 11.7061714,45.9356418 C11.4123048,45.9356418 11.1676571,45.8507463 11.0496762,45.7619104 C11.1025143,45.5763582 11.1394286,45.4309254 11.1676571,45.2496716 L11.2451048,45.2496716 C11.289981,45.4835821 11.4774476,45.6852537 11.8078667,45.6852537 C12.125619,45.6852537 12.2844952,45.4997015 12.2844952,45.2736716 C12.2844952,44.6647164 11.0699429,44.8259104 11.0699429,43.9099701 C11.0699429,43.3533134 11.5020571,43.0466866 11.9873714,43.0466866 C12.2805143,43.0466866 12.5009143,43.1233433 12.6558095,43.2440597 C12.6069524,43.3690746 12.5783619,43.4661493 12.5251619,43.6438209 L12.464,43.6438209 Z M14.3158667,44.3093731 C14.5362667,44.0027463 14.7519619,43.4940896 14.9314667,43.0989851 C14.9926286,43.1072239 15.0537905,43.1190448 15.1189333,43.1190448 C15.1844381,43.1190448 15.2452381,43.1072239 15.3147238,43.0989851 C15.135219,43.4016716 14.7233714,44.1356418 14.4628,44.6442985 C14.4628,44.7732537 14.4544762,44.9065075 14.4544762,45.0397612 C14.4544762,45.3059104 14.458819,45.5802985 14.4950095,45.8829851 C14.3813714,45.8747463 14.2626667,45.8629254 14.1490286,45.8629254 C14.0346667,45.8629254 13.9166857,45.8747463 13.8023238,45.8829851 C13.8146286,45.6247164 13.851181,45.3546269 13.851181,45.1042388 C13.851181,44.9792239 13.8468381,44.854209 13.843219,44.7288358 C13.5616571,44.1922388 13.0969714,43.3289552 12.9706667,43.0989851 C13.0929905,43.1072239 13.2153143,43.1190448 13.3376381,43.1190448 C13.4596,43.1190448 13.5783048,43.1072239 13.7002667,43.0989851 C13.8880952,43.4983881 14.1935429,44.1238209 14.3079048,44.3093731 L14.3158667,44.3093731 Z M16.8734476,43.6438209 C16.7876762,43.4138507 16.6288,43.2967164 16.3801714,43.2967164 C16.131181,43.2967164 15.956019,43.4661493 15.956019,43.6599403 C15.956019,44.2570746 17.195181,44.1073433 17.195181,45.0236418 C17.195181,45.5641791 16.7634286,45.9356418 16.1152571,45.9356418 C15.8213905,45.9356418 15.5771048,45.8507463 15.4587619,45.7619104 C15.5116,45.5763582 15.5485143,45.4309254 15.5771048,45.2496716 L15.6545524,45.2496716 C15.6990667,45.4835821 15.8868952,45.6852537 16.2169524,45.6852537 C16.5350667,45.6852537 16.6939429,45.4997015 16.6939429,45.2736716 C16.6939429,44.6647164 15.4793905,44.8259104 15.4793905,43.9099701 C15.4793905,43.3533134 15.9111429,43.0466866 16.3964571,43.0466866 C16.6899619,43.0466866 16.91,43.1233433 17.0648952,43.2440597 C17.0160381,43.3690746 16.9874476,43.4661493 16.9342476,43.6438209 L16.8734476,43.6438209 Z M18.1339619,43.7566567 C18.1339619,43.6033433 18.1339619,43.4582687 18.1216571,43.4016716 C17.962781,43.4016716 17.6200571,43.4256716 17.3757714,43.4539701 C17.3880762,43.3934328 17.3960381,43.3368358 17.3960381,43.2766567 C17.3960381,43.2157612 17.3880762,43.1595224 17.3757714,43.0989851 C17.7467238,43.110806 17.9302095,43.1190448 18.4357905,43.1190448 C18.9410095,43.1190448 19.1244952,43.110806 19.4712,43.0989851 C19.4585333,43.1595224 19.4509333,43.2157612 19.4509333,43.2766567 C19.4509333,43.3368358 19.4585333,43.3934328 19.4712,43.4539701 C19.2508,43.4256716 18.9084381,43.4016716 18.745581,43.4016716 C18.7372571,43.4582687 18.7372571,43.6033433 18.7372571,43.7566567 L18.7372571,44.7653731 C18.7372571,45.2174328 18.745581,45.528 18.7698286,45.8829851 C18.6800762,45.8747463 18.5700571,45.8629254 18.4357905,45.8629254 C18.3011619,45.8629254 18.190781,45.8747463 18.1013905,45.8829851 C18.1256381,45.528 18.1339619,45.2174328 18.1339619,44.7653731 L18.1339619,43.7566567 Z M19.8229714,44.216597 C19.8229714,43.7648955 19.8146476,43.4539701 19.7900381,43.0989851 C20.0307048,43.1029254 20.2753524,43.1190448 20.5156571,43.1190448 C20.9152,43.1190448 21.2575619,43.110806 21.3679429,43.0989851 C21.359619,43.1473433 21.3516571,43.1957015 21.3516571,43.2684179 C21.3516571,43.3533134 21.359619,43.3894925 21.3679429,43.4500299 C21.0581524,43.4299701 20.5688571,43.4016716 20.4465333,43.4016716 C20.4259048,43.6961194 20.4259048,43.9866269 20.4259048,44.2814328 C20.7809333,44.273194 21.0418667,44.2649552 21.3516571,44.2488358 C21.3350095,44.3416119 21.3310286,44.3781493 21.3310286,44.4304478 C21.3310286,44.4748657 21.3393524,44.511403 21.3516571,44.5959403 C21.0418667,44.5715821 20.7360571,44.5597612 20.4259048,44.5597612 C20.4259048,44.7288358 20.4222857,44.9025672 20.4222857,45.0759403 C20.4222857,45.2453731 20.4259048,45.4191045 20.4342286,45.5802985 C20.7400381,45.5802985 21.0538095,45.5641791 21.3679429,45.528 C21.359619,45.584597 21.3516571,45.6247164 21.3516571,45.7096119 C21.3516571,45.7941493 21.359619,45.8346269 21.3679429,45.8829851 C21.2210095,45.8790448 21.0295619,45.8629254 20.6546286,45.8629254 C19.9898095,45.8629254 19.8801524,45.8747463 19.7900381,45.8829851 C19.8146476,45.528 19.8229714,45.2174328 19.8229714,44.7653731 L19.8229714,44.216597 Z M22.1594286,44.0514627 C22.0736571,44.6604179 22.0374667,45.2736716 21.9962095,45.8829851 C21.9314286,45.870806 21.8659238,45.8629254 21.8051238,45.8629254 C21.739619,45.8629254 21.678819,45.870806 21.6133143,45.8829851 C21.7844952,44.9548657 21.9187619,44.0271045 22.0331238,43.0989851 C22.0903048,43.110806 22.1435048,43.1190448 22.2003238,43.1190448 C22.2531619,43.1190448 22.3103429,43.110806 22.363181,43.0989851 C22.6610286,43.7405373 23.0073714,44.4587463 23.305219,45.0275821 C23.6269524,44.4265075 23.9613524,43.7405373 24.2548571,43.0989851 C24.3120381,43.110806 24.3728381,43.1190448 24.430019,43.1190448 C24.4872,43.1190448 24.544381,43.110806 24.6012,43.0989851 C24.7072381,44.0271045 24.8501905,45.3141493 24.9518857,45.8829851 C24.8418667,45.870806 24.7314857,45.8629254 24.6218286,45.8629254 C24.5118095,45.8629254 24.3974476,45.870806 24.2834476,45.8829851 C24.2548571,45.3220299 24.1853714,44.6364179 24.1202286,44.0106269 L24.1119048,44.0106269 C23.8064571,44.6364179 23.5049905,45.2575522 23.2111238,45.8829851 C23.1868762,45.8790448 23.1582857,45.8747463 23.1336762,45.8747463 C23.1094286,45.8747463 23.0808381,45.8790448 23.0562286,45.8829851 C22.7667048,45.2736716 22.4735619,44.6604179 22.1677524,44.0514627 L22.1594286,44.0514627 Z M26.6047048,43.6438209 C26.5192952,43.4138507 26.360419,43.2967164 26.1114286,43.2967164 C25.8628,43.2967164 25.6876381,43.4661493 25.6876381,43.6599403 C25.6876381,44.2570746 26.9268,44.1073433 26.9268,45.0236418 C26.9268,45.5641791 26.4950476,45.9356418 25.8468762,45.9356418 C25.5530095,45.9356418 25.3083619,45.8507463 25.190381,45.7619104 C25.243219,45.5763582 25.2801333,45.4309254 25.3083619,45.2496716 L25.3861714,45.2496716 C25.4306857,45.4835821 25.6185143,45.6852537 25.9485714,45.6852537 C26.2663238,45.6852537 26.4252,45.4997015 26.4252,45.2736716 C26.4252,44.6647164 25.2106476,44.8259104 25.2106476,43.9099701 C25.2106476,43.3533134 25.6427619,43.0466866 26.1280762,43.0466866 C26.421219,43.0466866 26.641619,43.1233433 26.7965143,43.2440597 C26.7476571,43.3690746 26.7190667,43.4661493 26.6658667,43.6438209 L26.6047048,43.6438209 Z" id="合并形状" fill="#B6B6B6"></path>
                    <path d="M12.3630286,9.20202985 C12.1498667,9.20202985 11.9768762,9.03152239 11.9768762,8.8201791 C11.9768762,8.60955224 12.1498667,8.43868657 12.3630286,8.43868657 C12.5754667,8.43868657 12.7480952,8.60955224 12.7480952,8.8201791 C12.7480952,9.03152239 12.5754667,9.20202985 12.3630286,9.20202985 Z M12.3905333,8.17361194 C12.1777333,8.17361194 12.0051048,8.00167164 12.0051048,7.79104478 C12.0051048,7.58077612 12.1777333,7.40991045 12.3905333,7.40991045 C12.604419,7.40991045 12.7766857,7.58077612 12.7766857,7.79104478 C12.7766857,8.00167164 12.604419,8.17361194 12.3905333,8.17361194 Z M12.7585905,7.24764179 C12.5457905,7.24764179 12.3735238,7.07641791 12.3735238,6.86579104 C12.3735238,6.65516418 12.5457905,6.48429851 12.7585905,6.48429851 C12.9724762,6.48429851 13.1451048,6.65516418 13.1451048,6.86579104 C13.1451048,7.07641791 12.9724762,7.24764179 12.7585905,7.24764179 Z M13.4950667,6.51868657 C13.2822667,6.51868657 13.11,6.3478209 13.11,6.13719403 C13.11,5.92620896 13.2822667,5.75498507 13.4950667,5.75498507 C13.7085905,5.75498507 13.881219,5.92620896 13.881219,6.13719403 C13.881219,6.3478209 13.7085905,6.51868657 13.4950667,6.51868657 Z M14.3915048,6.08310448 C14.1790667,6.08310448 14.0068,5.91223881 14.0068,5.70089552 C14.0068,5.49026866 14.1790667,5.31940299 14.3915048,5.31940299 C14.6043048,5.31940299 14.778019,5.49026866 14.778019,5.70089552 C14.778019,5.91223881 14.6043048,6.08310448 14.3915048,6.08310448 Z M15.4967619,6.0039403 C15.2836,6.0039403 15.1106095,5.83271642 15.1106095,5.62208955 C15.1106095,5.41110448 15.2836,5.24059701 15.4967619,5.24059701 C15.7099238,5.24059701 15.8821905,5.41110448 15.8821905,5.62208955 C15.8821905,5.83271642 15.7099238,6.0039403 15.4967619,6.0039403 Z M16.5289143,6.28871642 C16.3164762,6.28871642 16.1438476,6.11785075 16.1438476,5.90722388 C16.1438476,5.69659701 16.3164762,5.52501493 16.5289143,5.52501493 C16.7420762,5.52501493 16.9154286,5.69659701 16.9154286,5.90722388 C16.9154286,6.11785075 16.7420762,6.28871642 16.5289143,6.28871642 Z M17.5299429,6.61361194 C17.316781,6.61361194 17.1441524,6.44274627 17.1441524,6.23140299 C17.1441524,6.02077612 17.316781,5.85026866 17.5299429,5.85026866 C17.7427429,5.85026866 17.9157333,6.02077612 17.9157333,6.23140299 C17.9157333,6.44274627 17.7427429,6.61361194 17.5299429,6.61361194 Z M12.9789905,9.65444776 L12.7433905,10.1179701 C12.5385524,10.1770746 12.3018667,10.0610149 12.2421524,9.85862687 C12.1820762,9.6558806 12.300419,9.4438209 12.5048952,9.38543284 C12.7097333,9.32632836 12.92,9.45170149 12.9789905,9.65444776 Z M24.9080952,9.65050746 C24.9681714,9.4481194 25.1777143,9.32167164 25.3821905,9.38113433 C25.5870286,9.44023881 25.7050095,9.65158209 25.6456571,9.85397015 C25.5859429,10.0567164 25.3492571,10.1727761 25.144419,10.1140299 L24.9080952,9.65050746 Z M25.524419,9.19737313 C25.311619,9.19737313 25.1389905,9.02686567 25.1389905,8.81623881 C25.1389905,8.60489552 25.311619,8.43402985 25.524419,8.43402985 C25.7379429,8.43402985 25.9102095,8.60489552 25.9102095,8.81623881 C25.9102095,9.02686567 25.7379429,9.19737313 25.524419,9.19737313 Z M25.4961905,8.16967164 C25.2837524,8.16967164 25.1107619,7.99808955 25.1107619,7.78746269 C25.1107619,7.57683582 25.2837524,7.40525373 25.4961905,7.40525373 C25.7093524,7.40525373 25.8823429,7.57683582 25.8823429,7.78746269 C25.8823429,7.99808955 25.7093524,8.16967164 25.4961905,8.16967164 Z M25.1277714,7.24334328 C24.9149714,7.24334328 24.7423429,7.07283582 24.7423429,6.86149254 C24.7423429,6.65050746 24.9149714,6.48 25.1277714,6.48 C25.3412952,6.48 25.5139238,6.65050746 25.5139238,6.86149254 C25.5139238,7.07283582 25.3412952,7.24334328 25.1277714,7.24334328 Z M24.3916571,6.51474627 C24.1788571,6.51474627 24.0058667,6.3438806 24.0058667,6.13325373 C24.0058667,5.92191045 24.1788571,5.75104478 24.3916571,5.75104478 C24.605181,5.75104478 24.7774476,5.92191045 24.7774476,6.13325373 C24.7774476,6.3438806 24.605181,6.51474627 24.3916571,6.51474627 Z M23.495219,6.07916418 C23.2816952,6.07916418 23.1094286,5.9079403 23.1094286,5.69731343 C23.1094286,5.48632836 23.2816952,5.31510448 23.495219,5.31510448 C23.708381,5.31510448 23.8820952,5.48632836 23.8820952,5.69731343 C23.8820952,5.9079403 23.708381,6.07916418 23.495219,6.07916418 Z M22.3910476,5.99964179 C22.1778857,5.99964179 22.0048952,5.82877612 22.0048952,5.61814925 C22.0048952,5.40680597 22.1778857,5.2359403 22.3910476,5.2359403 C22.6042095,5.2359403 22.7764762,5.40680597 22.7764762,5.61814925 C22.7764762,5.82877612 22.6042095,5.99964179 22.3910476,5.99964179 Z M21.3581714,6.28477612 C21.1446476,6.28477612 20.972381,6.11391045 20.972381,5.90328358 C20.972381,5.69229851 21.1446476,5.52143284 21.3581714,5.52143284 C21.5709714,5.52143284 21.7446857,5.69229851 21.7446857,5.90328358 C21.7446857,6.11391045 21.5709714,6.28477612 21.3581714,6.28477612 Z M20.3578667,6.61002985 C20.1447048,6.61002985 19.9717143,6.43880597 19.9717143,6.2281791 C19.9717143,6.01755224 20.1447048,5.84668657 20.3578667,5.84668657 C20.5703048,5.84668657 20.7425714,6.01755224 20.7425714,6.2281791 C20.7425714,6.43880597 20.5703048,6.61002985 20.3578667,6.61002985 Z" id="合并形状" fill="#B6B6B6"></path>
                    <path d="M13.9966667,14.0105401 L13.4147238,13.8112795 L13.6658857,13.0556418 M23.7626667,14.0556418 L24.4658476,13.8112795 L24.217581,13.1591538" id="Stroke-62" stroke="#B6B6B6" stroke-width="0.5"></path>
                    <path d="M18.1249143,9.02507463 L18.1249143,7.13723757 C17.9154002,7.12630148 17.0698547,7.05793869 16.320819,6.69850746 C16.320819,6.69850746 15.2014476,6.12107463 14.1446857,6.70997015 C14.1074095,6.73146269 13.2059048,7.27379104 13.220019,8.36274627 C13.220019,8.36274627 13.220019,8.96955224 13.5135238,9.52979104 L13.6322286,9.72071642 C13.6322286,9.72071642 13.3738286,10.0438209 13.3358286,10.5721791 C13.3358286,10.5721791 13.3057905,10.8641194 13.3915619,11.2280597 C13.4129143,11.3197612 13.6774667,11.2595821 13.7013524,11.0711642 C13.7248762,10.8823881 13.7245143,10.5535522 13.6655238,10.2522985 L13.7248762,9.93958209 L14.7848952,12.3438806 L14.5109333,12.3320597 C14.5109333,12.3320597 14.1298476,11.8133731 13.9275429,11.7309851 C13.7248762,11.648597 13.6177524,11.7782687 13.6177524,11.7782687 C13.6177524,11.7782687 14.2898095,13.0875224 15.3476571,12.2493134 C15.3476571,12.2493134 16.0367238,11.672597 15.4265524,11.0969552 C15.4265524,11.0969552 15.0563238,10.8612537 14.9238667,11.2019104 C14.9238667,11.2019104 14.8713905,11.4368955 15.0302667,11.5160597 C15.0302667,11.5160597 14.6122667,11.5791045 14.4276952,11.1338507 C14.4276952,11.1338507 14.0820762,10.4464478 14.8713905,10.5202388 C14.8713905,10.5202388 15.3444,10.6821493 15.2152,10.2587463 C15.2152,10.2587463 15.0034857,9.55128358 15.3216,9.10674627 C15.3216,9.10674627 15.7721714,9.28979104 15.9046286,10.0757015 C15.9046286,10.0757015 15.9046286,10.4686567 16.2744952,10.2064478 C16.8872,9.81349254 17.0308762,10.4292537 17.0308762,10.4292537 C17.1901143,10.9257313 16.6186667,11.2019104 16.6186667,11.2019104 C16.7413524,11.0346269 16.6204762,10.822209 16.6204762,10.822209 C16.5053905,10.6126567 16.2629143,10.8014328 16.1619429,10.8945672 L16.1163429,10.9382687 L15.9780952,10.8863284 C15.9780952,10.8863284 16.0284,10.7874627 16.0284,10.7097313 C16.0284,10.5284776 15.887619,10.3701493 15.6809714,10.3665672 C15.4746857,10.3629851 15.3339048,10.5471045 15.3339048,10.7097313 C15.3339048,10.8727164 15.4497143,11.0532537 15.6809714,11.0532537 C15.9125905,11.0532537 15.9878667,10.8677015 15.9878667,10.8677015 L16.115981,10.9393433 C16.0204381,11.670806 16.5158857,11.9491343 16.5158857,11.9491343 C16.9157905,12.2697313 17.3594857,12.2224478 17.3366857,12.2238806 C17.7735048,12.1826866 17.9287619,12.0917015 17.9287619,12.0917015 C18.8031238,11.5250149 18.5870667,10.9260896 18.5870667,10.9260896 C18.4549714,10.9260896 18.2635238,10.9260896 18.2635238,10.9260896 C17.7351429,11.110209 17.5049714,11.6210149 17.5049714,11.6210149 L17.5049714,11.8825075 L17.346819,11.8825075 L17.346819,9.57779104 L17.5321143,9.57779104 C17.5581714,10.2587463 18.2729333,10.3637015 18.2729333,10.3637015 L18.6171048,10.3637015 L18.6171048,9.94459701 C18.5114286,9.49970149 17.9816,9.264 17.9816,9.264 L17.7174095,9.264 L17.7174095,9.02507463 L18.1249143,9.02507463 Z M18.1249143,6.63797179 L18.1249143,6.05480597 L18.3869932,6.05743776 C17.8783247,5.81755026 17.9280381,5.17683582 17.9280381,5.17683582 C17.9280381,4.78280597 18.1538667,4.44286567 18.4839238,4.27307463 L18.5078095,4.23904478 C18.7144571,4.05098507 18.7086667,3.26041791 18.7086667,3.26041791 C18.5946667,3.24716418 18.4882667,3.26292537 18.4882667,3.26292537 L18.4231238,3.29086567 C18.4231238,3.29086567 18.1835429,3.38077612 18.1835429,3.53373134 L18.0373333,3.53373134 L18.0373333,2.67438806 L18.1835429,2.67438806 C18.1835429,2.82734328 18.4231238,2.91725373 18.4231238,2.91725373 L18.4980381,2.91725373 L18.7086667,2.92119403 C18.7086667,2.92119403 18.8031238,2.96704478 18.8031238,2.75641791 L18.8031238,2.7438806 L18.7774286,2.46161194 C18.7774286,2.46161194 18.6862286,2.2241194 18.5291619,2.2241194 L18.5291619,2.07761194 L19.399181,2.07761194 L19.399181,2.2241194 C19.2450095,2.2241194 19.1538095,2.46161194 19.1538095,2.46161194 L19.1230476,2.7438806 C19.1230476,2.95450746 19.2030286,2.92119403 19.2030286,2.92119403 L19.4256,2.91725373 L19.4882095,2.91725373 C19.4882095,2.91725373 19.7270667,2.82734328 19.7270667,2.67438806 L19.8758095,2.67438806 L19.8758095,3.53373134 L19.7270667,3.53373134 C19.7270667,3.38077612 19.4882095,3.29086567 19.4882095,3.29086567 C19.3170286,3.21313433 19.2030286,3.26041791 19.2030286,3.26041791 C19.2030286,3.26041791 19.1798667,4.02985075 19.4046095,4.23904478 L19.4136571,4.26555224 C19.7520381,4.43283582 19.9861905,4.77707463 19.9861905,5.17683582 C19.9861905,5.17683582 20.0616838,5.68921779 19.5485575,6.05698838 L19.7657905,6.05480597 L19.7657905,6.60103204 C19.8504091,6.61162309 20.4328114,6.67300734 21.0053143,6.43952239 C21.8058476,6.11247761 22.0295048,6.01504478 22.5296571,5.99140299 C23.2574476,5.95737313 24.5418476,6.07414925 25.0655238,7.45934328 C25.4209143,8.39856716 24.9822857,9.55737313 24.9822857,9.55737313 L25.0061714,9.78125373 L25.3872571,10.4765373 L24.2668,13.2103881 L23.6913714,13.4117015 L23.8936762,13.9654925 L23.7203238,14.5357612 C23.7203238,14.5357612 21.7305714,13.7290746 18.9569333,13.6585075 C18.924,13.6574328 18.9569333,13.3425672 18.9569333,13.3425672 L19.3141333,12.9943881 C19.3141333,12.9943881 20.9539238,13.0968358 20.9550095,13.1050746 C20.9741905,13.2361791 21.0925333,13.318209 21.2510476,13.3468657 L22.0794476,13.4955224 C22.2727048,13.5299104 22.4536571,13.4267463 22.4840571,13.2648358 C22.5133714,13.1011343 22.3805524,12.9417313 22.1862095,12.9062687 L21.359981,12.759403 C21.166,12.7239403 20.9857714,12.8274627 20.956819,12.9893731 C20.9546476,13.0015522 20.9553714,13.0928955 20.9550095,13.1050746 C20.9546476,13.1122388 19.292781,13.0155224 19.292781,13.0155224 L19.4382667,12.8729552 L18.9569333,12.3951045 L18.4810286,12.8729552 L18.5877905,12.9779104 C18.5877905,12.9779104 17.0858857,13.0305672 17.0826286,13.0108657 C17.0569333,12.8482388 16.8803238,12.7475821 16.6863429,12.7787463 L15.857219,12.9127164 C15.6625143,12.9442388 15.5268,13.1014925 15.5528571,13.2648358 C15.5803619,13.4278209 15.7595048,13.5334925 15.9534857,13.5030448 L16.7840571,13.3687164 C16.9201333,13.3468657 17.1162857,13.3078209 17.0826286,13.0155224 C17.0804571,12.9958209 18.5678857,12.9585672 18.5678857,12.9585672 L18.9569333,13.344 L18.9569333,13.6585075 L18.7864762,13.6581493 C15.96,13.6710448 14.177619,14.5332537 14.177619,14.5332537 L13.9702476,14.0597015 L14.1895619,13.4066866 L13.6322286,13.2182687 L12.5103238,10.4765373 L12.8914095,9.78125373 L12.9152952,9.55737313 C12.9152952,9.55737313 12.4766667,8.39856716 12.8320571,7.45934328 C13.3557333,6.07414925 14.6401333,5.95737313 15.3682857,5.99140299 C15.8684381,6.01504478 16.0917333,6.11247761 16.8922667,6.43952239 C17.4125478,6.65170965 17.9624662,6.64540383 18.1249143,6.63797179 Z M18.9453524,6.07379586 L18.9453524,6.28513433 C18.9453524,6.28513433 18.7256762,6.28513433 18.7256762,6.50650746 C18.7256762,6.71140299 18.9453524,6.71355224 18.9453524,6.71355224 C18.9453524,6.71355224 19.1650286,6.71140299 19.1650286,6.50650746 C19.1650286,6.28513433 18.9457143,6.28513433 18.9457143,6.28513433 L18.9457143,6.07379903 Z M18.9453524,6.81814925 C18.9453524,6.81814925 18.7256762,6.81814925 18.7256762,7.04274627 C18.7256762,7.22507463 18.9453524,7.24477612 18.9453524,7.24477612 C18.9453524,7.24477612 19.1650286,7.22507463 19.1650286,7.04274627 C19.1650286,6.81814925 18.9453524,6.81814925 18.9453524,6.81814925 Z M18.9453524,7.32967164 C18.9453524,7.32967164 18.7256762,7.33002985 18.7256762,7.54280597 C18.7256762,7.74268657 18.9453524,7.7559403 18.9453524,7.7559403 C18.9453524,7.7559403 19.163581,7.752 19.1650286,7.54280597 C19.1664762,7.33002985 18.9453524,7.32967164 18.9453524,7.32967164 Z M18.9453524,7.8358209 C18.9453524,7.8358209 18.7231429,7.85444776 18.7256762,8.05074627 C18.7238667,8.26423881 18.9453524,8.26423881 18.9453524,8.26423881 L18.9453524,8.37026866 C18.9453524,8.37026866 18.7256762,8.37635821 18.7256762,8.58770149 C18.7256762,8.78829851 18.9453524,8.80083582 18.9453524,8.80083582 C18.9453524,8.80083582 19.1650286,8.78829851 19.1650286,8.58770149 C19.1650286,8.37635821 18.9453524,8.37026866 18.9453524,8.37026866 L18.9457143,8.26423881 C18.9457143,8.26423881 19.1668381,8.26423881 19.1650286,8.05074627 C19.1675619,7.85444776 18.9453524,7.8358209 18.9453524,7.8358209 Z M19.7657905,9.02507463 L20.2286667,9.02507463 L20.2286667,9.264 L19.9644762,9.264 C19.9644762,9.264 19.4346476,9.49970149 19.3286095,9.94459701 L19.3286095,10.3637015 L19.6731429,10.3637015 C19.6731429,10.3637015 20.3875429,10.2587463 20.4136,9.57779104 L20.5988952,9.57779104 L20.5988952,11.8825075 L20.440019,11.8825075 L20.440019,11.6210149 C20.440019,11.6210149 20.2112952,11.110209 19.6825524,10.9260896 L19.3253524,10.9260896 L19.2681714,10.9149851 C19.3206476,10.8397612 19.3539429,10.7734925 19.3582857,10.6692537 C19.3669714,10.4582687 19.186019,10.287403 18.9724952,10.287403 C18.7596952,10.287403 18.5874286,10.4579104 18.5874286,10.6692537 C18.5874286,10.8798806 18.7444952,11.0518209 18.9724952,11.0503881 C19.1596,11.0496716 19.2873524,10.9006567 19.2873524,10.8834627 C19.2873524,10.8902687 19.3300571,10.9260896 19.3300571,10.9260896 C19.3300571,11.0994627 19.3626286,11.646806 20.0165905,12.0917015 C20.0165905,12.0917015 20.1432571,12.1780299 20.5554667,12.2224478 C20.5384571,12.2224478 20.9817905,12.2697313 21.3816952,11.9491343 C21.3816952,11.9491343 21.8771429,11.670806 21.7816,10.9393433 C21.7816,10.9393433 21.4247619,10.5535522 21.2771048,10.822209 C21.2771048,10.822209 21.1562286,11.0346269 21.2789143,11.2019104 C21.2789143,11.2019104 20.7226667,10.9651343 20.8819048,10.4686567 C20.8819048,10.4686567 21.010381,9.81349254 21.6230857,10.2064478 C21.9929524,10.4686567 21.9929524,10.0757015 21.9929524,10.0757015 C22.1257714,9.28979104 22.5763429,9.10674627 22.5763429,9.10674627 C22.8940952,9.55128358 22.682381,10.2587463 22.682381,10.2587463 C22.553181,10.6821493 23.0265524,10.5202388 23.0265524,10.5202388 C23.7724381,10.3536716 23.4702476,11.1338507 23.4702476,11.1338507 C23.2853143,11.5791045 22.8673143,11.5160597 22.8673143,11.5160597 C23.0265524,11.4368955 22.9737143,11.2019104 22.9737143,11.2019104 C22.8781714,10.9558209 22.6476381,11.0109851 22.5296571,11.0489552 C22.5256762,11.0378507 22.4561905,10.9776716 22.4507619,10.9808955 C22.477181,10.9665672 22.5890095,10.8795224 22.5904571,10.6982687 C22.5919048,10.4905075 22.4105905,10.3543881 22.2556952,10.3543881 C22.0866857,10.3543881 21.8912571,10.4643582 21.8959619,10.7118806 C21.899219,10.8816716 22.0461524,11.0464478 22.2437524,11.0421493 C22.3461714,11.0396418 22.3986476,11.009194 22.4627048,10.9737313 L22.5463048,11.0396418 L22.4713905,11.0969552 C21.8608571,11.672597 22.5499238,12.2493134 22.5499238,12.2493134 C23.6081333,13.0875224 24.2798286,11.7782687 24.2798286,11.7782687 C24.2798286,11.7782687 24.1727048,11.648597 23.9704,11.7309851 C23.7677333,11.8137313 23.3866476,12.3320597 23.3866476,12.3320597 L23.1130476,12.3438806 L24.1727048,9.93958209 L24.2320571,10.2522985 C24.1734286,10.5535522 24.1727048,10.8823881 24.1965905,11.0711642 C24.2201143,11.2595821 24.4846667,11.3197612 24.506381,11.2280597 C24.5921524,10.8641194 24.5621143,10.5721791 24.5621143,10.5721791 C24.5237524,10.0438209 24.2653524,9.72035821 24.2653524,9.72035821 L24.3840571,9.52979104 C24.6779238,8.96955224 24.6775619,8.36274627 24.6775619,8.36274627 C24.6916762,7.27379104 23.7905333,6.73146269 23.7528952,6.71032836 C22.6961333,6.12107463 21.5767619,6.69850746 21.5767619,6.69850746 C20.7692414,7.08600316 19.877264,7.13422292 19.7657905,7.13779192 L19.7657905,9.02507463 Z M19.5213662,6.05726155 L19.6601143,5.34626866 C19.7592762,5.33946269 19.8826857,5.34268657 19.8924571,5.17791045 C19.8971619,5.0801194 19.8783429,4.98734328 19.7780952,4.95295522 L19.5092,4.94256716 L19.1205143,4.94256716 L19.1357143,4.94256716 L19.1357143,4.27092537 C19.1357143,4.19032836 19.0734667,4.14913433 19.0734667,4.14913433 L18.9116952,4.14662687 C18.8454667,4.14662687 18.8248381,4.27092537 18.8248381,4.27092537 L18.8248381,4.94256716 L18.4129905,4.94256716 L18.1589333,4.95295522 C18.0576,4.98734328 18.0221333,5.0801194 18.0221333,5.17791045 C18.0221333,5.28286567 18.1303429,5.33946269 18.2606286,5.34626866 L19.6604762,5.34949254 L19.5217475,6.05725772 L19.5213662,6.05726155 Z" id="合并形状" fill="#B6B6B6"></path>
                </g>
            </g>
        </g>
    </g>
</svg>