<svg xmlns="http://www.w3.org/2000/svg" xmlns:xlink="http://www.w3.org/1999/xlink" width="58" height="59" viewBox="0 0 58 59">
    <defs>
        <path id="a" d="M.08.058h51.046V32H.08z"/>
        <path id="c" d="M0 .841h57.353v46.483H0z"/>
    </defs>
    <g fill="none" fill-rule="evenodd" opacity=".8">
        <path d="M-1-1h60v60H-1z"/>
        <g transform="translate(3 26.16)">
            <mask id="b" fill="#fff">
                <use xlink:href="#a"/>
            </mask>
            <path fill="#FFF" d="M50.244 31.117H37.412V26.88c0-.026-.025-1.522-.942-3.075l3.245-1.314 2.022 2.022 2.024-2.022 3.57 1.447a4.394 4.394 0 0 1 2.913 3.913v3.266zm-13.715 0H14.824v-4.236a5.658 5.658 0 0 1 3.758-5.052l4.569-1.853 2.526 2.526 2.525-2.526 4.575 1.857a5.65 5.65 0 0 1 3.752 5.047v4.237zM13.94 26.88v4.237H.963v-3.266c0-.027.034-2.799 2.92-3.916l3.563-1.444 2.023 2.022 2.022-2.022 3.364 1.363c-.89 1.535-.914 3-.914 3.026zm-2.997-5.915v.825l-1.475 1.475-1.477-1.475v-.736c.268.051.542.081.824.081h.986c.398 0 .777-.07 1.142-.17zm-5.508-3.95V14.65c1.694-.193 4.497-.788 6.024-2.624.394.586 1.032 1.44 1.72 2.034v2.954c0 1.786-1.514 3.24-3.378 3.24h-.986c-1.864 0-3.38-1.454-3.38-3.24zm-.96-3.17V12.16c0-2.628 2.168-4.766 4.833-4.766 2.664 0 4.83 2.138 4.83 4.766v1.538c-.715-.454-1.714-1.752-2.283-2.686l-.377-.62-.377.62c-1.417 2.333-5.308 2.755-6.625 2.833zm-.958 2.056c0-.596.457-1.069 1.037-1.133v2.246l.002.028c-.556-.069-1.04-.548-1.04-1.14zm11.58 0c0 .683-.505 1.214-1.037 1.14l.002-.027V14.77c.037-.006.07-.026.108-.026.51 0 .927.52.927 1.157zm12.558 2.131v1.243l-1.98 1.98-1.98-1.98v-1.122a5.43 5.43 0 0 0 1.156.132h1.246c.545 0 1.062-.104 1.558-.253zM20.47 13.2v-3.088c2.14-.23 5.819-.98 7.728-3.404.493.746 1.354 1.937 2.279 2.722v3.77c0 2.317-1.964 4.203-4.38 4.203h-1.246c-2.416 0-4.381-1.886-4.381-4.203zm-1.21-3.879v-2.25c0-3.38 2.787-6.13 6.214-6.13 3.427 0 6.214 2.75 6.214 6.13V9.21c-.946-.48-2.308-2.23-3.096-3.527l-.378-.62-.377.62c-1.865 3.068-7.032 3.56-8.577 3.64zm-1.21 2.473c0-.857.686-1.55 1.537-1.573v2.98c0 .056.015.11.017.166a1.575 1.575 0 0 1-1.554-1.573zm14.848 0c0 .87-.577 1.575-1.287 1.575-.091 0-.177-.026-.264-.049 0-.04.013-.079.013-.12v-2.952c.082-.02.166-.029.25-.029.71 0 1.288.706 1.288 1.575zm10.315 9.171v.825l-1.477 1.475-1.475-1.475v-.736c.266.051.54.081.823.081h.986a4.35 4.35 0 0 0 1.143-.17zm-5.508-3.95V14.65c1.692-.193 4.496-.788 6.022-2.624.396.586 1.033 1.44 1.722 2.034v2.954c0 1.786-1.516 3.24-3.38 3.24h-.985c-1.863 0-3.38-1.454-3.38-3.24zm-.96-3.17V12.16c0-2.628 2.168-4.766 4.832-4.766 2.664 0 4.83 2.138 4.83 4.766v1.538c-.716-.454-1.714-1.752-2.282-2.686l-.377-.62-.377.62c-1.417 2.333-5.31 2.755-6.625 2.833zm-.958 2.056c0-.593.484-1.065 1.035-1.138v2.251c0 .01.003.018.003.027-.555-.07-1.038-.547-1.038-1.14zm11.579 0c0 .683-.505 1.214-1.037 1.14l.003-.027V14.77c.036-.006.069-.026.106-.026.512 0 .928.52.928 1.157zm.288 7.217l-3.558-1.443v-1.058c1.066-.563 1.862-1.539 2.13-2.717.072.01.14.04.212.04.998 0 1.81-.915 1.81-2.039 0-.775-.39-1.443-.957-1.788V12.16c0-3.114-2.564-5.647-5.714-5.647-3.15 0-5.714 2.533-5.714 5.647v2.02a2.035 2.035 0 0 0-.958 1.721 2.04 2.04 0 0 0 2.034 2.038c.306 1.278 1.222 2.328 2.439 2.846v.89l-3.418 1.386c-.635-.793-1.546-1.542-2.86-2.048l-4.563-1.852v-1.483c1.37-.7 2.397-1.95 2.717-3.459.117.021.236.033.357.033 1.195 0 2.169-1.103 2.169-2.458 0-.964-.496-1.79-1.21-2.194V7.071c0-3.867-3.183-7.013-7.096-7.013-3.913 0-7.097 3.146-7.097 7.013v2.617a2.448 2.448 0 0 0-1.21 2.106 2.46 2.46 0 0 0 2.458 2.458c.026 0 .05-.007.076-.008.357 1.647 1.54 3.004 3.113 3.644v1.273l-4.558 1.848c-1.34.518-2.264 1.287-2.901 2.097l-3.53-1.43v-1.059c1.067-.563 1.864-1.539 2.133-2.717.07.01.139.04.212.04.998 0 1.81-.915 1.81-2.039 0-.775-.391-1.443-.958-1.788V12.16c0-3.114-2.563-5.647-5.714-5.647-3.15 0-5.713 2.533-5.713 5.647v2.02a2.032 2.032 0 0 0-.96 1.721 2.04 2.04 0 0 0 2.036 2.038c.305 1.278 1.22 2.328 2.438 2.846v.89l-3.553 1.44C.12 24.445.08 27.818.08 27.851v4.15h51.045v-4.15c0-.033-.04-3.407-3.471-4.733z" mask="url(#b)"/>
        </g>
        <g transform="translate(0 -.84)">
            <mask id="d" fill="#fff">
                <use xlink:href="#c"/>
            </mask>
            <path fill="#FFF" d="M.883 29.517c0-5.616 1.68-10.845 4.555-15.22.966.359 3.873 1.372 8.128 2.287-1.571 4.92-2.097 9.87-2.253 13.298H.899c-.002-.122-.016-.242-.016-.365zM24.242 2.08c-5.375 3.02-8.54 8.266-10.397 13.664-3.995-.855-6.788-1.797-7.894-2.2C10.176 7.55 16.705 3.295 24.24 2.08zm2.696-.298c.429-.027.863-.041 1.298-.05V17.38a74.48 74.48 0 0 1-13.53-1.46c2.054-5.905 5.72-11.575 12.232-14.137zm2.18-.05c.384.008.767.016 1.147.039 6.58 2.577 10.26 8.326 12.307 14.29-4.71.969-9.255 1.337-13.454 1.327V1.734zm22.28 11.805a59.914 59.914 0 0 1-7.965 2.344c-1.86-5.464-5.044-10.791-10.498-13.833C40.544 3.224 47.139 7.5 51.398 13.538zm5.073 15.979c0 .123-.014.243-.016.365h-10.54c-.153-3.396-.673-8.286-2.21-13.162a60.522 60.522 0 0 0 8.205-2.432 27.629 27.629 0 0 1 4.56 15.229zM7.34 47.324C3.43 42.653 1.207 36.883.937 30.764h10.342a54.26 54.26 0 0 0-.027 1.56h.88c.002-.453.01-.981.027-1.56h7.518v-.882h-7.483c.153-3.39.67-8.282 2.227-13.12a75.465 75.465 0 0 0 13.815 1.502v7.06h.882v-7.052h.172a66.99 66.99 0 0 0 13.562-1.368c1.52 4.79 2.03 9.622 2.183 12.978h-8.358v.883h8.393c.017.578.025 1.106.026 1.559h.88a54.26 54.26 0 0 0-.026-1.56h10.467c-.27 6.128-2.485 11.89-6.397 16.56h1.13c4.017-5.047 6.204-11.25 6.204-17.807 0-15.208-11.901-27.682-26.877-28.614-.03-.011-.054-.024-.081-.034l-.01.027a29.322 29.322 0 0 0-1.71-.056c-.614 0-1.223.027-1.828.066l-.014-.037c-.037.014-.071.03-.108.045C11.82 1.92 0 14.36 0 29.517c0 6.545 2.187 12.757 6.203 17.807H7.34z" mask="url(#d)"/>
        </g>
    </g>
</svg>
