<svg xmlns="http://www.w3.org/2000/svg" width="56" height="59" viewBox="0 0 56 59">
    <g fill="none" fill-rule="evenodd" opacity=".8">
        <path d="M-2-1h60v60H-2z"/>
        <g fill="#FFF">
            <path d="M7.234 12.53v3.439H2.578v4.297H0v37.937H15.47V20.266H12.89v-4.297H8.234V12.53h-1zm-3.656 7.595h8.312v-3.156H3.578v3.156zM1 21.269h13.468v35.93h-3.296v-8.644H4.296V57.2H1V21.269zm4.296 35.92h4.875v-7.621H5.296v7.622zM24.422 24.563v3.023h-4.657v4.33h-2.474v26.287H32.554V31.916h-2.476v-4.33h-4.655v-3.023h-1.001zm-3.657 7.18h8.313v-3.156h-8.313v3.156zm-2.474 1.185h13.262v24.264H28.36v-8.637h-6.875v8.637h-3.193V32.928zm4.194 24.262h4.873v-7.622h-4.873v7.622z"/>
            <path d="M4.297 25.89h6.875v-1.002H4.297zM4.297 30.615h6.875v-1H4.297zM4.297 35.342h6.875v-1H4.297zM4.297 44.796h6.875v-1H4.297zM4.297 40.07h6.875v-1H4.297zM21.188 35.9h2.489v-1.002h-2.489zM21.188 40.347h2.489v-1h-2.489zM21.188 44.796h2.489v-1h-2.489zM26.167 35.9h2.489v-1.002h-2.489zM26.167 40.347h2.489v-1h-2.489zM26.167 44.796h2.489v-1h-2.489z"/>
            <path d="M42.32 32.567c.754-3.008 1.195-6.437 1.232-10.083H54.23v-1H43.55c-.035-3.69-.46-7.134-1.202-10.13 3.013-.375 5.764-.943 8.108-1.69 2.537 3.475 4.05 7.742 4.043 12.366-.008 4.506-1.493 8.696-3.972 12.137-2.394-.705-5.182-1.244-8.208-1.6zM36.939 42.67c2.148-1.694 3.943-4.952 5.122-9.127 2.878.333 5.53.833 7.832 1.485-3.176 3.973-7.755 6.771-12.954 7.642zm-12.46-21.186c.037-3.658.48-7.08 1.228-10.047a72.336 72.336 0 0 0 15.627.034c.743 2.96 1.18 6.37 1.219 10.013H24.479zM17.248 8.746a20.952 20.952 0 0 1 12.84-7.454c-2.16 1.667-3.954 4.87-5.127 9.05-2.875-.362-5.5-.902-7.713-1.596zM33.39 1.014c.04 0 .082-.005.124-.005h.037c.029 0 .056.005.085.005 3.108.096 5.84 3.84 7.439 9.472a70.95 70.95 0 0 1-15.113-.025c1.598-5.617 4.326-9.348 7.428-9.447zM49.82 8.81c-2.228.681-4.865 1.21-7.742 1.56-1.168-4.17-2.952-7.37-5.1-9.05A20.973 20.973 0 0 1 49.82 8.81zM33.625.011c-.037 0-.072-.01-.11-.01-.048 0-.095.013-.144.014A21.943 21.943 0 0 0 12.97 14.203h1.069a20.968 20.968 0 0 1 2.547-4.615c2.303.753 5.07 1.338 8.107 1.728-.748 3.006-1.178 6.462-1.214 10.168h-6.076v1h25.15c-.04 3.596-.488 7-1.243 9.968a76.742 76.742 0 0 0-6.907-.378v1c2.288.026 4.524.142 6.652.355-1.474 5.148-3.892 8.782-6.652 9.43v1.085c11.646-.469 21.076-10.209 21.097-21.912C55.52 9.933 45.715.072 33.625.012z"/>
        </g>
    </g>
</svg>
