<svg xmlns="http://www.w3.org/2000/svg" width="54" height="59" viewBox="0 0 54 59">
    <g fill="none" fill-rule="evenodd" opacity=".8">
        <path d="M-3 0h60v60H-3z"/>
        <g fill="#FFF">
            <path d="M23.355 8.79v5.915l3.282 4.921a5.78 5.78 0 0 1-2.782.716 5.795 5.795 0 0 1-5.788-5.788 5.794 5.794 0 0 1 5.288-5.764zm1 .022c2.79.244 5.029 2.45 5.268 5.242h-5.268V8.812zm4.302 8.977c-.334.492-.74.915-1.192 1.276l-2.674-4.01h4.817a5.733 5.733 0 0 1-.951 2.734zm-4.802 3.553a6.789 6.789 0 0 0 5.63-2.992l-.415-.28.415.28a6.73 6.73 0 0 0 1.123-3.296h.037v-.5a6.797 6.797 0 0 0-6.79-6.789 6.796 6.796 0 0 0-6.788 6.79 6.796 6.796 0 0 0 6.788 6.787z"/>
            <path d="M53 40.105h-9.779V12.359h7.584c1.211 0 2.195.983 2.195 2.194v25.552zm0 6.788c0 1.21-.984 2.194-2.195 2.194H3.195A2.196 2.196 0 0 1 1 46.892v-5.788h52v5.788zM36.413 57.171H17.391l2.651-7.085h13.72l2.651 7.084zM1 14.553c0-1.212.984-2.196 2.195-2.196h8.034v27.747H1V14.554zM12.229 3.194c0-1.21.984-2.195 2.195-2.195h17.915v7.264a2.299 2.299 0 0 0 2.297 2.298h7.585v29.543H12.229V3.195zm21.11-1.591L41.35 9.56h-6.714a1.299 1.299 0 0 1-1.297-1.296V1.603zm17.466 9.754h-7.584V10.01L33.144 0h-18.72a3.198 3.198 0 0 0-3.195 3.196v8.162H3.195A3.2 3.2 0 0 0 0 14.553v32.34a3.198 3.198 0 0 0 3.195 3.194h15.779l-2.651 7.084h-4.145v1h29.644v-1h-4.341l-2.651-7.084h15.975A3.198 3.198 0 0 0 54 46.892V14.553a3.2 3.2 0 0 0-3.195-3.195z"/>
            <path d="M17.118 28.528h14.373v-1H17.118zM17.118 33.02h20.661v-1H17.118z"/>
        </g>
    </g>
</svg>
