<svg xmlns="http://www.w3.org/2000/svg" xmlns:xlink="http://www.w3.org/1999/xlink" width="57" height="58" viewBox="0 0 57 58">
    <defs>
        <path id="a" d="M0 .911h57V58H0z"/>
    </defs>
    <g fill="none" fill-rule="evenodd" opacity=".8">
        <path d="M-2-2h60v60H-2z"/>
        <g transform="translate(0 -.911)">
            <mask id="b" fill="#fff">
                <use xlink:href="#a"/>
            </mask>
            <path fill="#FFF" d="M56 51.756c0 1.2-.998 2.176-2.224 2.176H6.129V4.979h47.647c1.226 0 2.224.976 2.224 2.176v44.6zm-53.716-2.73A1.286 1.286 0 0 1 1 47.74v-8.92c0-.708.576-1.284 1.284-1.284h2.845v11.489H2.284zm0-19.624A1.286 1.286 0 0 1 1 28.117V12.062c0-.708.576-1.285 1.284-1.285h2.845v18.625H2.284zM53.776 3.979H6.129V.91h-1v8.866H2.284A2.287 2.287 0 0 0 0 12.062v16.055a2.287 2.287 0 0 0 2.284 2.285h2.845v6.135H2.284A2.287 2.287 0 0 0 0 38.82v8.92a2.287 2.287 0 0 0 2.284 2.285h2.845V58h1v-3.068h47.647c1.778 0 3.224-1.425 3.224-3.176V7.155c0-1.752-1.446-3.176-3.224-3.176z" mask="url(#b)"/>
        </g>
        <path fill="#FFF" d="M48.446 13.773a2.18 2.18 0 0 1-2.176-2.178c0-1.2.976-2.176 2.176-2.176 1.2 0 2.176.976 2.176 2.176a2.18 2.18 0 0 1-2.176 2.178m0-5.354a3.18 3.18 0 0 0-3.176 3.176 3.18 3.18 0 0 0 3.176 3.178 3.18 3.18 0 0 0 3.176-3.178 3.18 3.18 0 0 0-3.176-3.176M48.446 47.669a2.18 2.18 0 0 1-2.176-2.177c0-1.2.976-2.176 2.176-2.176 1.2 0 2.176.976 2.176 2.176a2.18 2.18 0 0 1-2.176 2.177m0-5.353a3.18 3.18 0 0 0-3.176 3.176 3.18 3.18 0 0 0 3.176 3.177 3.18 3.18 0 0 0 3.176-3.177 3.18 3.18 0 0 0-3.176-3.176M33.024 29.879a3.063 3.063 0 0 1-1.676 1.344 3.041 3.041 0 0 1-.952.167c-.03 0-.055-.008-.082-.01a3.017 3.017 0 0 1-1.377-.376 3.046 3.046 0 0 1-.857-.693 3.033 3.033 0 0 1-.465-.712 3.03 3.03 0 0 1-.264-1.045c-.006-.078-.023-.154-.023-.233 0-.454.105-.882.283-1.27.166-.362.399-.685.684-.955.203-.191.434-.348.682-.48.289-.151.6-.26.935-.314.158-.026.318-.05.484-.05.145 0 .284.024.423.044a3.055 3.055 0 0 1 2.475 2.063 3.089 3.089 0 0 1 .169.962c0 .172-.023.339-.05.503a3.05 3.05 0 0 1-.39 1.055zm8.869-3.473l-.275-.961-7.237 2.064a3.97 3.97 0 0 0-.43-1.121l4.228-6.246-.828-.561-4.02 5.939a4.07 4.07 0 0 0-1.588-1.02l-.795-7.667-.995.104.76 7.348c-.106-.01-.208-.032-.317-.032-.415 0-.81.08-1.186.197l-5.618-5.44-.695.719 5.33 5.163c-.46.292-.86.669-1.17 1.116l-7.566-.541-.071.998 7.154.512a4.029 4.029 0 0 0-.246 1.344c0 .309.04.607.107.897l-5.758 4.17.587.81 5.538-4.011c.249.478.587.896.997 1.24L26 38.596l.969.244L28.687 32c.52.244 1.096.39 1.709.39.132 0 .258-.027.388-.04l3.24 6.672.9-.438-3.136-6.456a4.058 4.058 0 0 0 1.55-1.014l6.969 3.115.408-.912-6.78-3.031a4.007 4.007 0 0 0 .507-1.755l7.45-2.125z"/>
        <path fill="#FFF" d="M30.395 44.77c-9.07 0-16.448-7.38-16.448-16.448 0-9.07 7.379-16.448 16.448-16.448 9.07 0 16.448 7.378 16.448 16.448 0 9.069-7.378 16.448-16.448 16.448m0-33.896c-9.62 0-17.448 7.827-17.448 17.448 0 9.62 7.828 17.448 17.448 17.448 9.622 0 17.448-7.827 17.448-17.448s-7.827-17.448-17.448-17.448"/>
    </g>
</svg>
