<?xml version="1.0" encoding="UTF-8"?>
<svg width="93px" height="34px" viewBox="0 0 93 34" version="1.1" xmlns="http://www.w3.org/2000/svg" xmlns:xlink="http://www.w3.org/1999/xlink">
    <!-- Generator: Sketch 53.2 (72643) - https://sketchapp.com -->
    <title>Group 5</title>
    <desc>Created with Sketch.</desc>
    <g id="main" stroke="none" stroke-width="1" fill="none" fill-rule="evenodd">
        <g id="main-login" transform="translate(-1233.000000, -1377.000000)">
            <g id="Group-4" transform="translate(1090.000000, 1377.000000)">
                <g id="Group-5" transform="translate(143.000000, 0.000000)">
                    <g id="Group" transform="translate(68.000000, 0.000000)">
                        <path d="M11.9998137,7.52113364 L11.9998137,0 L11.9998137,7.52113364 Z M20.1735134,9 L24,2.48687222 L20.1735134,9 Z M3.82648664,9 L0,2.48687222 L3.82648664,9 Z" id="Combined-Shape" stroke="#231916"></path>
                        <path d="M22.6345421,21.9829976 L18.1701622,26.2550657 L19.2237559,32.2854127 C19.2961902,32.7202218 19.1130404,33.1580726 18.7525921,33.4118101 C18.5527912,33.5561353 18.3122353,33.6331132 18.0657644,33.631595 C17.8738423,33.6338438 17.6845871,33.58653 17.5163023,33.4942294 L11.9942078,30.6507628 L6.47348691,33.4942294 C6.07834661,33.6998412 5.60154698,33.6680546 5.23719709,33.4118101 C4.87751378,33.1576044 4.6954116,32.7197048 4.76878062,32.2854127 L5.82237427,26.2550657 L1.35662073,21.9829976 C1.03584749,21.6807899 0.919086921,21.2201748 1.05716386,20.801654 C1.19835247,20.3769327 1.56743989,20.0684734 2.01048067,20.0049339 L8.18231417,19.1257944 L10.9433614,13.6449096 C11.1477029,13.248837 11.5560849,13 12.0017629,13 C12.4474409,13 12.8558229,13.248837 13.0601643,13.6449096 L15.8212116,19.1257944 L21.9944187,20.0049339 C22.4369659,20.0682147 22.8053478,20.3769741 22.9449882,20.801654 C23.0810873,21.2222716 22.959846,21.6836324 22.6345421,21.9829976 Z" id="즐겨찾기_on" fill="#e8ac3d"></path>
                    </g>
                    <g id="Group-3" transform="translate(37.000000, 18.000000)" fill="#231916">
                        <polygon id="Fill-1" points="3.627 -0.00011 0 4.08089 15.224 4.08089 15.224 3.08089 2.227 3.08089 4.374 0.66389"></polygon>
                        <polygon id="Fill-2" points="0.0009 6.84179 0.0009 7.84179 12.9979 7.84179 10.8509 10.25779 11.5969 10.92279 15.2239 6.84179"></polygon>
                    </g>
                    <path d="M20.3361906,19.5505724 L14.9709673,19.1716484 C14.8583529,19.1692285 14.7586121,19.099528 14.7192145,18.9957194 L12.6749268,14.0967736 C12.3978907,13.4332366 11.7409025,13 11.0117076,13 C10.2825127,13 9.62552446,13.4332366 9.34848834,14.0967736 L7.29869788,19.0092524 C7.25112537,19.1065872 7.15603675,19.1730367 7.04694509,19.1851814 L1.68172174,19.5641054 C0.950784116,19.6107506 0.321673208,20.0889059 0.0913146618,20.7728933 C-0.139043885,21.4568806 0.0754023034,22.2099599 0.633439637,22.6766952 L4.7797943,26.0464121 C4.86813217,26.1127669 4.9072103,26.224889 4.87884458,26.330605 L3.61457785,31.4325458 C3.46262217,31.9480503 3.564414,32.5037968 3.8897175,32.9347087 C4.22651066,33.367696 4.74833994,33.6226132 5.30255965,33.6248917 C5.64027545,33.6283008 5.97082433,33.5290492 6.24904008,33.3406987 L10.781966,30.5664338 C10.877811,30.5123191 10.9956531,30.5123191 11.0914981,30.5664338 L15.669822,33.3271657 C15.9504981,33.524558 16.2878078,33.6288436 16.6328108,33.6248917 C17.1613332,33.6187664 17.6593875,33.3804951 17.990625,32.9753077 C18.3375737,32.5444149 18.4648057,31.9809437 18.3359253,31.4460788 L17.0675315,26.344138 C17.0388219,26.2346655 17.0768593,26.1187224 17.1652061,26.0464121 L21.3762185,22.6631622 C21.9266202,22.1945272 22.1369764,21.4465127 21.9096713,20.7662351 C21.6823662,20.0859576 21.0618961,19.6065857 20.3361906,19.5505724 L20.3361906,19.5505724 Z M20.6814909,21.8241163 L16.4801083,25.2073661 C16.065417,25.5394979 15.8818147,26.0765979 16.0082438,26.587732 L17.2780133,31.6896728 C17.3309077,31.9026676 17.2800622,32.1277471 17.1404435,32.2986578 C17.0173495,32.4482041 16.8338552,32.5372211 16.6383136,32.5422517 C16.5101845,32.5431661 16.3848567,32.5053769 16.2792564,32.4339877 L11.6830484,29.6461899 C11.4639034,29.5120646 11.2106459,29.4416878 10.9525526,29.4431949 C10.6927322,29.4416948 10.4377099,29.5120322 10.216554,29.6461899 L5.66574401,32.4339877 C5.37452385,32.6158385 4.99066953,32.5515405 4.77704291,32.2851248 C4.6526655,32.1171883 4.61786366,31.900701 4.68349542,31.7032058 L5.95188925,26.587732 C6.07447924,26.0778688 5.89397794,25.54361 5.48552753,25.2073661 L1.34742705,21.8376493 C1.13061679,21.6600563 1.04981417,21.3680631 1.1451994,21.1068673 C1.22731869,20.8387179 1.4755192,20.6530038 1.76013654,20.6467453 L7.1253599,20.2542883 C7.65406651,20.2267659 8.1181742,19.899148 8.31396323,19.4152424 L10.3637537,14.5162966 C10.4635611,14.2506137 10.7210242,14.0741974 11.0089562,14.0741974 C11.2968882,14.0741974 11.5543513,14.2506137 11.6541587,14.5162966 L13.7039492,19.4152424 C13.8997382,19.899148 14.3638459,20.2267659 14.8925525,20.2542883 L20.2687814,20.6467453 C20.5484785,20.6605928 20.7899098,20.8441159 20.8740887,21.1068673 C20.9607118,21.3623502 20.8850709,21.6440427 20.6814909,21.8241163 L20.6814909,21.8241163 Z" id="즐겨찾기_off_copy-copy" fill="#202020"></path>
                </g>
            </g>
        </g>
    </g>
</svg>