<svg width="95" height="106" viewBox="0 0 95 106" fill="none" xmlns="http://www.w3.org/2000/svg">
<path fill-rule="evenodd" clip-rule="evenodd" d="M1 104.611H93.5562V1.6886H1V104.611Z" stroke="#202020" stroke-width="2"/>
<path fill-rule="evenodd" clip-rule="evenodd" d="M14.5563 72.7101C17.5957 72.7101 19.2765 70.8473 19.2765 68.4868C19.2765 67.3066 18.8003 66.3401 17.9459 65.5865L16.9514 66.496C17.5257 67.0227 17.8618 67.6342 17.8618 68.4584C17.8618 70.0089 16.6012 71.0179 14.5143 71.0179C12.4553 71.0179 11.1947 69.9235 11.1947 68.4015C11.1947 67.691 11.4889 67.1644 11.9511 66.6809L10.9426 65.7708C10.3263 66.3538 9.78006 67.2781 9.78006 68.4162C9.78006 70.8046 11.5589 72.7101 14.5563 72.7101ZM19.1081 64.0649V58.3343H17.7355V62.4154H15.0322V59.0737H13.6596V62.4154H11.3205V58.4765H9.94785V64.0649H19.1081ZM11.251 54.8219V53.5137C11.251 52.2339 11.6151 51.5514 12.6656 51.5514C13.7021 51.5514 14.2343 52.2339 14.2343 53.5137V54.8219H11.251ZM19.1081 49.5607L15.2843 51.7789C14.9062 50.6556 14.0658 49.9161 12.6651 49.9161C10.6202 49.9161 9.94785 51.4092 9.94785 53.3431V56.4715H19.1081V54.822H15.5225V53.4142L19.1081 51.4092V49.5607ZM19.1081 46.4039V44.7544H11.3205V42.081H9.94785V49.0914H11.3205V46.4039H19.1081ZM9.94785 40.5596H19.1081V38.9101H9.94785V40.5596ZM19.1081 36.5922V34.9427H15.2843V31.5726H13.9117V34.9427H11.3205V30.9753H9.94785V36.5922H19.1081ZM9.94785 29.3969H19.1081V27.7474H9.94785V29.3969ZM19.1081 25.4295V19.6989H17.7355V23.78H15.0322V20.4383H13.6596V23.78H11.3205V19.8411H9.94785V25.4295H19.1081ZM19.1076 17.8362V15.2767C19.1076 12.518 17.5249 10.8259 14.4855 10.8259C11.4601 10.8259 9.94735 12.518 9.94735 15.362V17.8362H19.1076ZM17.7919 16.1867H11.2648V15.4757C11.2648 13.5987 12.2453 12.518 14.4864 12.518C16.7414 12.518 17.7919 13.5987 17.7919 15.4757V16.1867V16.1867Z" fill="#202020"/>
<path fill-rule="evenodd" clip-rule="evenodd" d="M59.9987 40.128C66.9714 40.128 71.067 36.7268 71.067 30.7781C71.067 24.8785 67.1805 21.4952 60.2083 21.4952H53.8234V16.7063H60.724C70.6131 16.7063 76.4611 21.9671 76.4611 30.7781C76.4611 38.3062 71.7009 43.7703 63.8308 44.4718L79.5705 63.943H72.9475L53.8058 40.128H59.9987ZM43.2239 59.1227H63.9894V63.9295H37.7946V16.7091H43.2239V59.1227Z" fill="#202020"/>
<path fill-rule="evenodd" clip-rule="evenodd" d="M9.78006 91.8069H11.3545V82.7937H9.78006V91.8069ZM15.7937 91.9723C17.7893 91.9723 18.984 90.7594 18.984 89.2984C18.984 87.9892 18.2375 87.314 17.1922 86.859L15.984 86.3491C15.251 86.0458 14.572 85.784 14.572 85.0815C14.572 84.4195 15.1286 84.0203 15.9706 84.0203C16.7305 84.0203 17.3276 84.3094 17.8983 84.7918L18.6992 83.7722C18.0067 83.0691 17.0019 82.6283 15.9706 82.6283C14.2327 82.6283 12.9835 83.7306 12.9835 85.1642C12.9835 86.4871 13.9069 87.1897 14.7759 87.562L15.9975 88.0998C16.7985 88.4442 17.3686 88.6786 17.3686 89.4227C17.3686 90.1253 16.8255 90.5803 15.8212 90.5803C15.0067 90.5803 14.1513 90.1669 13.5132 89.5602L12.5898 90.6493C13.4317 91.4899 14.599 91.9723 15.7937 91.9723ZM23.6407 91.9723C25.9621 91.9723 27.5641 90.1806 27.5641 87.2587C27.5641 84.351 25.9621 82.6283 23.6407 82.6283C21.3327 82.6283 19.7308 84.351 19.7308 87.2587C19.7308 90.1806 21.3327 91.9723 23.6407 91.9723ZM23.6401 90.5803C22.2421 90.5803 21.3456 89.2848 21.3456 87.2587C21.3456 85.2468 22.2421 84.0203 23.6401 84.0203C25.0382 84.0203 25.9341 85.2468 25.9341 87.2587C25.9341 89.2848 25.0382 90.5803 23.6401 90.5803ZM27.7668 94.0121H28.8256L31.989 82.0216H30.9297L27.7668 94.0121ZM32.9941 91.8069H34.5691V82.7937H32.9941V91.8069ZM36.4144 91.8069H41.8993V90.456H37.9894V87.7964H41.1798V86.4455H37.9894V84.144H41.7634V82.7937H36.4144V91.8069ZM46.8544 91.9723C47.9946 91.9723 48.9315 91.5036 49.651 90.663L48.809 89.6571C48.3069 90.208 47.6963 90.5803 46.9088 90.5803C45.4153 90.5803 44.4649 89.3401 44.4649 87.2866C44.4649 85.2605 45.4968 84.0203 46.9493 84.0203C47.6418 84.0203 48.171 84.3368 48.6327 84.8055L49.4746 83.7722C48.918 83.1655 48.0221 82.6283 46.9088 82.6283C44.6688 82.6283 42.8495 84.3784 42.8495 87.3277C42.8495 90.3186 44.6143 91.9723 46.8544 91.9723ZM52.4194 91.8068H58.2565V90.456H56.139C55.7182 90.456 55.1481 90.5113 54.6999 90.5529C56.4108 88.7196 57.8358 87.1211 57.8358 85.5633C57.8358 83.9375 56.7635 82.8763 55.1071 82.8763C53.9264 82.8763 53.139 83.3724 52.3515 84.2266L53.2204 85.1088C53.6821 84.5853 54.2387 84.1302 54.9038 84.1302C55.8267 84.1302 56.3293 84.7227 56.3293 85.6465C56.3293 86.9832 54.8223 88.5268 52.4194 90.8836V91.8068ZM60.7415 91.807H62.3299C62.4793 88.3889 62.8321 86.5562 64.8547 84.0061V83.0417H59.0581V84.3784H63.1444C61.4745 86.7352 60.8909 88.6923 60.7415 91.807ZM68.4918 91.9722C70.2835 91.9722 71.4238 90.3459 71.4238 87.3829C71.4238 84.4336 70.2835 82.8763 68.4918 82.8763C66.7 82.8763 65.5597 84.4194 65.5597 87.3829C65.5597 90.3459 66.7 91.9722 68.4918 91.9722ZM68.4925 90.732C67.6645 90.732 67.0534 89.8635 67.0534 87.383C67.0534 84.9019 67.6645 84.1166 68.4925 84.1166C69.3339 84.1166 69.9315 84.9019 69.9315 87.383C69.9315 89.8635 69.3339 90.732 68.4925 90.732ZM75.048 91.9722C76.8398 91.9722 77.9805 90.3459 77.9805 87.3829C77.9805 84.4336 76.8398 82.8763 75.048 82.8763C73.2562 82.8763 72.1159 84.4194 72.1159 87.3829C72.1159 90.3459 73.2562 91.9722 75.048 91.9722ZM75.0497 90.732C74.2217 90.732 73.6106 89.8635 73.6106 87.383C73.6106 84.9019 74.2217 84.1166 75.0497 84.1166C75.8916 84.1166 76.4887 84.9019 76.4887 87.383C76.4887 89.8635 75.8916 90.732 75.0497 90.732ZM79.1353 91.807H84.3343V90.5114H82.6374V83.0417H81.4702C80.9271 83.3725 80.3295 83.5926 79.4746 83.758V84.7508H81.063V90.5114H79.1353V91.807V91.807Z" fill="#202020"/>
</svg>
