<svg width="83" height="106" viewBox="0 0 83 106" fill="none" xmlns="http://www.w3.org/2000/svg">
<path fill-rule="evenodd" clip-rule="evenodd" d="M1.93103 104.717H81.9997V1.30469H1.93103V104.717Z" stroke="#202020" stroke-width="2"/>
<path fill-rule="evenodd" clip-rule="evenodd" d="M54.8929 22.0095C55.02 21.5721 55.4634 21.2988 55.8961 21.4265C56.3295 21.5543 56.5792 22.0111 56.4528 22.4493C56.3265 22.8868 55.8264 23.1376 55.393 23.0114" fill="#202020"/>
<path fill-rule="evenodd" clip-rule="evenodd" d="M54.8929 22.0095C55.02 21.5721 55.4634 21.2988 55.8961 21.4265C56.3295 21.5543 56.5792 22.0111 56.4528 22.4493C56.3265 22.8868 55.8264 23.1376 55.393 23.0114" fill="#202020"/>
<path d="M54.8929 22.0095C55.02 21.5721 55.4634 21.2988 55.8961 21.4265C56.3295 21.5543 56.5792 22.0111 56.4528 22.4493C56.3265 22.8868 55.8264 23.1376 55.393 23.0114" stroke="#202020" stroke-width="0.505263"/>
<path fill-rule="evenodd" clip-rule="evenodd" d="M56.1965 21.03C55.7454 21.03 55.3809 20.6614 55.3809 20.2062C55.3809 19.7486 55.7454 19.38 56.1965 19.38C56.6483 19.38 57.0128 19.7486 57.0128 20.2062C57.0128 20.6614 56.6483 21.03 56.1965 21.03" fill="#202020"/>
<path fill-rule="evenodd" clip-rule="evenodd" d="M56.1965 21.03C55.7454 21.03 55.3809 20.6614 55.3809 20.2062C55.3809 19.7486 55.7454 19.38 56.1965 19.38C56.6483 19.38 57.0128 19.7486 57.0128 20.2062C57.0128 20.6614 56.6483 21.03 56.1965 21.03Z" stroke="#202020" stroke-width="0.505263"/>
<path fill-rule="evenodd" clip-rule="evenodd" d="M56.1377 18.8087C55.6881 18.8087 55.3213 18.4378 55.3213 17.9826C55.3213 17.5273 55.6881 17.1556 56.1377 17.1556C56.5887 17.1556 56.9547 17.5273 56.9547 17.9826C56.9547 18.4378 56.5887 18.8087 56.1377 18.8087" fill="#202020"/>
<path fill-rule="evenodd" clip-rule="evenodd" d="M56.1377 18.8087C55.6881 18.8087 55.3213 18.4378 55.3213 17.9826C55.3213 17.5273 55.6881 17.1556 56.1377 17.1556C56.5887 17.1556 56.9547 17.5273 56.9547 17.9826C56.9547 18.4378 56.5887 18.8087 56.1377 18.8087" fill="#202020"/>
<path fill-rule="evenodd" clip-rule="evenodd" d="M56.1377 18.8087C55.6881 18.8087 55.3213 18.4378 55.3213 17.9826C55.3213 17.5273 55.6881 17.1556 56.1377 17.1556C56.5887 17.1556 56.9547 17.5273 56.9547 17.9826C56.9547 18.4378 56.5887 18.8087 56.1377 18.8087Z" stroke="#202020" stroke-width="0.505263"/>
<path fill-rule="evenodd" clip-rule="evenodd" d="M55.3565 16.8064C54.9062 16.8064 54.541 16.4378 54.541 15.9803C54.541 15.525 54.9062 15.1564 55.3565 15.1564C55.8083 15.1564 56.1736 15.525 56.1736 15.9803C56.1736 16.4378 55.8083 16.8064 55.3565 16.8064" fill="#202020"/>
<path fill-rule="evenodd" clip-rule="evenodd" d="M55.3565 16.8064C54.9062 16.8064 54.541 16.4378 54.541 15.9803C54.541 15.525 54.9062 15.1564 55.3565 15.1564C55.8083 15.1564 56.1736 15.525 56.1736 15.9803C56.1736 16.4378 55.8083 16.8064 55.3565 16.8064" fill="#202020"/>
<path fill-rule="evenodd" clip-rule="evenodd" d="M55.3565 16.8064C54.9062 16.8064 54.541 16.4378 54.541 15.9803C54.541 15.525 54.9062 15.1564 55.3565 15.1564C55.8083 15.1564 56.1736 15.525 56.1736 15.9803C56.1736 16.4378 55.8083 16.8064 55.3565 16.8064Z" stroke="#202020" stroke-width="0.505263"/>
<path fill-rule="evenodd" clip-rule="evenodd" d="M29.1173 55.845L40.2282 68.4013L62.2324 35.3594L62.0149 23.2444L40.2282 54.5226L29.1173 39.7657V55.845Z" fill="#202020"/>
<path fill-rule="evenodd" clip-rule="evenodd" d="M62.9994 72.7682C63.9597 72.7682 64.5754 73.2335 64.9062 74.1394H65.1428L65.1449 74.1322C65.3473 73.4361 65.4582 73.0545 65.6459 72.5614C65.0478 72.0837 64.1963 71.7817 63.0614 71.7817C61.1852 71.7817 59.5158 72.9927 59.5158 75.1916C59.5158 77.1837 60.9401 77.8848 62.22 78.5148C63.2642 79.0288 64.2124 79.4955 64.2124 80.5774C64.2124 81.4671 63.5974 82.2026 62.3676 82.2026C61.0925 82.2026 60.3658 81.4051 60.1935 80.4807H59.8948C59.7846 81.1976 59.6429 81.7706 59.4384 82.5046C59.8948 82.8546 60.8398 83.1891 61.974 83.1891C64.4812 83.1891 66.1506 81.7249 66.1506 79.5887C66.1506 77.5878 64.6842 76.8745 63.374 76.2372C62.316 75.7225 61.3598 75.2573 61.3598 74.2037C61.3598 73.4387 62.0375 72.7682 62.9994 72.7682ZM55.0503 82.9517L55.0502 82.9517C54.7177 82.9263 54.4068 82.9026 54.0971 82.9026C53.7593 82.9026 53.4126 82.9307 53.0702 82.9585L53.0701 82.9585C52.9654 82.967 52.8612 82.9755 52.7577 82.9831C52.4269 81.8991 52.0647 80.7997 51.6695 79.7172C50.9926 79.7002 50.3317 79.6847 49.6532 79.6847C49.1026 79.6847 48.5665 79.7002 48.0152 79.7172C47.5902 80.7997 47.2425 81.8821 46.9438 82.9831C46.8767 82.9745 46.8109 82.9648 46.7458 82.9552L46.7456 82.9552C46.5646 82.9285 46.3885 82.9026 46.2033 82.9026C46.0308 82.9026 45.8671 82.9247 45.6866 82.9491L45.6866 82.9491L45.6865 82.9491C45.6011 82.9606 45.5118 82.9727 45.4161 82.9831C46.1872 81.2139 48.5505 75.5432 49.9044 71.9095C49.9557 71.9176 50.006 71.9265 50.0557 71.9354C50.2057 71.962 50.3508 71.9877 50.5055 71.9877C50.6585 71.9877 50.8032 71.962 50.9527 71.9354L50.9527 71.9354C51.0023 71.9265 51.0525 71.9176 51.1036 71.9095C52.4422 75.5432 54.2855 80.3847 55.4839 82.9831C55.3345 82.9735 55.1905 82.9625 55.0503 82.9517ZM51.3077 78.7764L51.2308 78.5593L51.2308 78.5593C50.8007 77.3444 50.3803 76.157 49.904 74.984C49.3702 76.2267 48.8809 77.4857 48.4253 78.7764H51.3077ZM18.4461 76.7489C18.4374 77.3659 18.4276 78.0521 18.4276 78.9987C18.4276 81.9944 20.5236 83.189 23.2192 83.189C26.2754 83.189 27.866 81.6614 27.866 77.9635C27.866 75.2071 27.9762 72.9284 28.072 71.9877C27.8039 72.0372 27.552 72.0698 27.2832 72.0698C27.0159 72.0698 26.7494 72.0372 26.4799 71.9877C26.5595 73.4542 26.607 74.9051 26.607 76.3701C26.607 79.3347 26.4332 82.0896 23.9114 82.0896C21.8637 82.0896 20.761 81.4547 20.761 77.5655C20.761 75.7173 20.7747 74.0604 20.9807 71.9877C20.5557 72.0372 20.1146 72.0698 19.6896 72.0698C19.2631 72.0698 18.8212 72.0372 18.397 71.9877C18.4276 72.5157 18.4598 73.5827 18.4598 75.2721C18.4598 75.7876 18.4533 76.2452 18.4461 76.7489ZM36.1349 82.9831C36.0101 81.9789 36.0101 80.2739 36.0101 77.9798H36.0423C36.4967 78.7048 36.9574 79.433 37.4192 80.1629C38.0127 81.101 38.6081 82.0421 39.1943 82.9831C39.3055 82.9752 39.4167 82.9663 39.5279 82.9575C39.8731 82.93 40.2185 82.9026 40.5643 82.9026C40.8593 82.9026 41.1543 82.9226 41.4921 82.9456C41.6769 82.9582 41.8746 82.9716 42.092 82.9831C41.242 81.8511 39.146 78.6495 37.7906 76.5776C38.61 75.5431 41.147 72.7047 41.8546 71.9877C41.748 71.998 41.6467 72.0094 41.5494 72.0204C41.3183 72.0464 41.1104 72.0698 40.9104 72.0698C40.6782 72.0698 40.4552 72.0414 40.2275 72.0124L40.2275 72.0124C40.1616 72.004 40.0953 71.9955 40.0282 71.9877C39.4761 72.8022 37.4276 75.3829 36.0101 77.0715C36.0101 75.0159 36.0101 72.8355 36.1349 71.9877L36.0585 71.9954C35.7268 72.0291 35.3268 72.0698 34.8438 72.0698C34.3625 72.0698 33.9625 72.0293 33.6299 71.9956L33.5512 71.9877C33.6461 73.3907 33.6783 74.6179 33.6783 76.4018V78.569C33.6783 80.3537 33.6461 81.5801 33.5512 82.9831L33.6832 82.9705C34.005 82.9395 34.3879 82.9026 34.8438 82.9026C35.3013 82.9026 35.6843 82.9396 36.0053 82.9707L36.1349 82.9831Z" fill="#202020"/>
<path fill-rule="evenodd" clip-rule="evenodd" d="M41.3146 86.9946C42.0995 86.9946 42.6516 87.3438 43.0139 87.8672H43.1341C43.185 87.5776 43.2774 87.2873 43.3695 86.9983L43.3695 86.9983L43.3761 86.9776C42.755 86.6462 42.1684 86.4542 41.297 86.4542C39.2699 86.4542 37.7261 87.5614 37.7261 89.7766C37.7261 91.5558 39.1489 92.6986 41.1331 92.6986C41.8928 92.6986 42.6861 92.533 43.4366 92.3146C43.419 92.1838 43.4105 91.7215 43.4105 91.3553C43.4105 90.7978 43.4366 90.0739 43.4795 89.8904C43.3677 89.9082 43.1946 89.9337 42.7811 89.9337C42.4273 89.9337 42.2542 89.9082 42.1424 89.8904C42.1441 89.9241 42.1476 89.9673 42.1522 90.0226L42.1522 90.0229L42.1522 90.0231L42.1523 90.0238L42.1523 90.0239C42.17 90.2404 42.2029 90.6419 42.2029 91.3901C42.2029 91.6433 42.2029 91.8609 42.1776 92.001C42.039 92.0963 41.5305 92.1574 41.2372 92.1574C39.9086 92.1574 39.1405 91.1114 39.1405 89.7247C39.1405 87.8928 40.2448 86.9946 41.3146 86.9946ZM25.6573 92.5848C25.5717 92.5795 25.4894 92.5734 25.4094 92.5674C25.2315 92.554 25.0647 92.5415 24.8984 92.5415C24.718 92.5415 24.5324 92.5562 24.349 92.5708L24.349 92.5708L24.3489 92.5708L24.3488 92.5708C24.2871 92.5757 24.2257 92.5805 24.1648 92.5848C23.984 91.9917 23.7857 91.3901 23.5697 90.7978C23.1991 90.7885 22.8369 90.78 22.4655 90.78C22.1645 90.78 21.8705 90.7885 21.5695 90.7978C21.3359 91.3901 21.146 91.9832 20.9821 92.5848C20.9441 92.5801 20.9066 92.5747 20.8695 92.5693L20.8695 92.5693C20.7722 92.5553 20.6768 92.5415 20.577 92.5415C20.4849 92.5415 20.3972 92.5531 20.3007 92.5659H20.3007C20.2519 92.5724 20.2009 92.5791 20.1459 92.5848C20.5686 91.617 21.862 88.5122 22.6041 86.5238C22.6324 86.5284 22.6602 86.5334 22.6877 86.5383C22.7691 86.5529 22.8483 86.5672 22.9318 86.5672C23.0154 86.5672 23.0946 86.5529 23.176 86.5383C23.2035 86.5334 23.2313 86.5284 23.2596 86.5238C23.9925 88.5122 25.0018 91.1633 25.6573 92.5848ZM23.3698 90.283L23.3078 90.108L23.3077 90.1079L23.3077 90.1079C23.0792 89.4627 22.8553 88.8307 22.6024 88.2072C22.3091 88.887 22.0419 89.5769 21.7907 90.283H23.3698ZM13.9308 88.6273C13.7668 89.8165 13.6885 91.0132 13.6105 92.2044L13.5854 92.5861C13.4483 92.5606 13.3097 92.5428 13.1811 92.5428C13.0425 92.5428 12.913 92.5606 12.7752 92.5861C13.1367 90.5808 13.4215 88.5747 13.6635 86.5685C13.7845 86.5948 13.8963 86.6127 14.0173 86.6127C14.1291 86.6127 14.2501 86.5948 14.3619 86.5685C14.9922 87.9552 15.725 89.5076 16.3553 90.738C17.0361 89.438 17.7437 87.9552 18.3647 86.5685C18.4849 86.5948 18.6144 86.6127 18.7353 86.6127C18.8563 86.6127 18.9766 86.5948 19.0976 86.5685L19.1592 87.1206C19.3751 89.0573 19.6436 91.466 19.8396 92.5861C19.6068 92.5606 19.3733 92.5428 19.1405 92.5428C18.9084 92.5428 18.6664 92.5606 18.4252 92.5861C18.3647 91.3736 18.2177 89.8917 18.0798 88.5398H18.0622C17.4159 89.8917 16.778 91.235 16.1562 92.5861C16.1049 92.5776 16.0444 92.5691 15.9923 92.5691C15.941 92.5691 15.8805 92.5776 15.8284 92.5861C15.2158 91.2691 14.5955 89.9436 13.9484 88.6273H13.9308ZM26.8346 86.6114C26.7051 86.6114 26.5757 86.5936 26.4463 86.5673C26.4492 86.7012 26.4547 86.8466 26.4607 87.0081C26.4736 87.352 26.4892 87.769 26.4892 88.3032C26.4892 90.0825 26.3598 92.3325 26.3169 92.5849C26.4463 92.5594 26.5841 92.5415 26.7136 92.5415C26.843 92.5415 26.9808 92.5594 27.1187 92.5849C27.0934 92.2628 27.0674 91.7742 27.0674 90.3782C27.0674 89.7248 27.0674 89.0008 27.0842 88.3466C28.4129 89.7588 29.6726 91.1726 30.8542 92.5849C30.9576 92.5594 31.0694 92.5415 31.1904 92.5415C31.3114 92.5415 31.4239 92.5594 31.5442 92.5849C31.5442 90.2652 31.5442 89.1053 31.682 86.5673C31.5526 86.5936 31.4239 86.6114 31.2938 86.6114C31.1643 86.6114 31.0357 86.5936 30.9055 86.5673C30.966 86.9598 30.966 89.3322 30.966 90.7189C29.7658 89.4065 28.5971 88.1017 27.4224 86.7901L27.4223 86.79L27.2228 86.5673C27.0934 86.5936 26.964 86.6114 26.8346 86.6114ZM37.7064 92.5848C37.6208 92.5795 37.5385 92.5734 37.4585 92.5673C37.2808 92.554 37.1143 92.5415 36.9475 92.5415C36.767 92.5415 36.5815 92.5562 36.3981 92.5708L36.3981 92.5708C36.3363 92.5757 36.2748 92.5805 36.2139 92.5848C36.0339 91.9917 35.8348 91.3901 35.6188 90.7978C35.2482 90.7885 34.8867 90.78 34.5153 90.78C34.2136 90.78 33.9195 90.7885 33.6186 90.7978C33.385 91.3901 33.1959 91.9832 33.032 92.5848C32.9934 92.5801 32.9556 92.5746 32.9181 92.5692C32.8207 92.5552 32.7256 92.5415 32.6261 92.5415C32.5345 92.5415 32.4466 92.5531 32.3499 92.5659C32.3011 92.5724 32.25 92.5791 32.195 92.5848C32.6177 91.617 33.9119 88.5122 34.6532 86.5238C34.6822 86.5284 34.7106 86.5335 34.7387 86.5386C34.8196 86.5531 34.8979 86.5672 34.9809 86.5672C35.0649 86.5672 35.1438 86.553 35.2249 86.5384L35.2249 86.5384C35.2525 86.5334 35.2803 86.5284 35.3087 86.5238C36.0423 88.5122 37.0509 91.1633 37.7064 92.5848ZM35.4226 90.283L35.3617 90.1112L35.3617 90.1111C35.1327 89.4648 34.9085 88.8317 34.6545 88.2072C34.3612 88.887 34.0939 89.5769 33.8435 90.283H35.4226ZM44.588 88.983C44.588 88.0067 44.5704 87.3346 44.5191 86.5673C44.7385 86.571 44.9597 86.5797 45.1811 86.5884C45.4729 86.5999 45.7651 86.6114 46.0537 86.6114C46.8999 86.6114 47.6244 86.5936 47.8572 86.5673L47.8557 86.5761V86.5762V86.5762V86.5762V86.5762V86.5762V86.5762V86.5762V86.5762C47.8393 86.6778 47.8227 86.7809 47.8227 86.9343C47.8227 87.0801 47.8339 87.1593 47.847 87.2518V87.2519C47.8503 87.2753 47.8538 87.2996 47.8572 87.3261C47.2017 87.2827 46.1663 87.2215 45.9075 87.2215C45.8646 87.858 45.8646 88.4867 45.8646 89.1231C46.6151 89.1053 47.1672 89.0883 47.8227 89.0527C47.7883 89.254 47.7798 89.3322 47.7798 89.4452C47.7798 89.5169 47.7892 89.5791 47.8048 89.6823V89.6823L47.8049 89.6828C47.8101 89.7177 47.8161 89.7574 47.8227 89.8037C47.1672 89.7511 46.5201 89.7248 45.8646 89.7248C45.8646 89.9063 45.8625 90.0906 45.8604 90.276V90.2765V90.277L45.8604 90.2775C45.8583 90.4648 45.8562 90.6532 45.8562 90.8413C45.8562 91.2067 45.8646 91.5822 45.8822 91.9307C46.5293 91.9307 47.1925 91.8966 47.8572 91.8176L47.8492 91.8734C47.8352 91.9697 47.8227 92.0556 47.8227 92.2102C47.8227 92.3755 47.837 92.4622 47.8522 92.5542L47.8572 92.5849C47.7669 92.5824 47.6688 92.5777 47.5555 92.5723C47.2784 92.5591 46.9109 92.5415 46.3478 92.5415C44.9967 92.5415 44.729 92.5659 44.5416 92.5829L44.5191 92.5849C44.5704 91.8176 44.588 91.1463 44.588 90.1692V88.983ZM49.2208 92.2218C49.2993 91.0244 49.3781 89.8214 49.5423 88.6261H49.5599C50.207 89.9423 50.828 91.2679 51.4399 92.5849C51.492 92.5764 51.5525 92.5679 51.6038 92.5679C51.6559 92.5679 51.7164 92.5764 51.7677 92.5849C52.3895 91.2338 53.0274 89.8904 53.6737 88.5386H53.6913C53.8299 89.8904 53.9762 91.3724 54.0367 92.5849C54.2779 92.5594 54.5199 92.5415 54.7527 92.5415C54.9855 92.5415 55.2183 92.5594 55.4511 92.5849C55.255 91.4647 54.9865 89.0557 54.7706 87.119L54.7091 86.5673C54.5888 86.5936 54.4678 86.6114 54.3468 86.6114C54.2258 86.6114 54.0972 86.5936 53.9762 86.5673C53.3551 87.954 52.6475 89.4367 51.9668 90.7367C51.3365 89.5064 50.6037 87.954 49.9734 86.5673C49.8616 86.5936 49.7406 86.6114 49.6296 86.6114C49.5086 86.6114 49.396 86.5936 49.275 86.5673C49.033 88.5734 48.7489 90.5795 48.3867 92.5849C48.5253 92.5594 48.654 92.5415 48.7926 92.5415C48.922 92.5415 49.0598 92.5594 49.1969 92.5849L49.2208 92.2218ZM56.3254 88.983C56.3254 88.0067 56.3085 87.3346 56.2564 86.5673C56.4757 86.571 56.6968 86.5797 56.9182 86.5884C57.2102 86.5999 57.5026 86.6114 57.7918 86.6114C58.6373 86.6114 59.3617 86.5936 59.5945 86.5673L59.5931 86.5761V86.5762V86.5762V86.5762V86.5762V86.5762V86.5762V86.5762C59.5767 86.6778 59.56 86.7808 59.56 86.9343C59.56 87.0801 59.5713 87.1593 59.5843 87.2518V87.2519C59.5877 87.2753 59.5911 87.2996 59.5945 87.3261C58.939 87.2827 57.9036 87.2215 57.6448 87.2215C57.6019 87.858 57.6019 88.4867 57.6019 89.1231C58.3524 89.1053 58.9045 89.0883 59.56 89.0527C59.5256 89.254 59.5172 89.3322 59.5172 89.4452C59.5172 89.5139 59.5262 89.5738 59.5405 89.6695C59.5463 89.7076 59.5528 89.7514 59.56 89.8037C58.9045 89.7511 58.2574 89.7248 57.6019 89.7248C57.6019 89.9063 57.5998 90.0906 57.5978 90.276V90.2765V90.277L57.5977 90.2775C57.5956 90.4648 57.5935 90.6532 57.5935 90.8413C57.5935 91.2067 57.6019 91.5822 57.6195 91.9307C58.2666 91.9307 58.9306 91.8966 59.5945 91.8176L59.5865 91.8734C59.5725 91.9697 59.56 92.0556 59.56 92.2102C59.56 92.3755 59.5743 92.4622 59.5895 92.5542L59.5945 92.5849C59.5043 92.5824 59.4062 92.5777 59.293 92.5723L59.293 92.5723C59.0161 92.5591 58.6488 92.5415 58.0851 92.5415C56.734 92.5415 56.4663 92.5659 56.2789 92.5829L56.2564 92.5849C56.3085 91.8176 56.3254 91.1463 56.3254 90.1692V88.983ZM61.0036 86.6114C60.8742 86.6114 60.7448 86.5936 60.6153 86.5673C60.6181 86.7062 60.6238 86.8575 60.6301 87.0264V87.0264V87.0265V87.0265V87.0265V87.0266V87.0267C60.6428 87.367 60.6582 87.7786 60.6582 88.3032C60.6582 90.0825 60.5288 92.3325 60.4859 92.5849C60.6153 92.5594 60.7532 92.5415 60.8826 92.5415C61.012 92.5415 61.1499 92.5594 61.2877 92.5849C61.2624 92.2628 61.2364 91.7742 61.2364 90.3782C61.2364 89.7248 61.2364 89.0008 61.2532 88.3466C62.5819 89.7588 63.8416 91.1726 65.0232 92.5849C65.1266 92.5594 65.2384 92.5415 65.3594 92.5415C65.4804 92.5415 65.5922 92.5594 65.7132 92.5849C65.7132 90.2652 65.7132 89.1053 65.851 86.5673C65.7216 86.5936 65.5922 86.6114 65.4628 86.6114C65.3334 86.6114 65.2047 86.5936 65.0745 86.5673C65.135 86.9598 65.135 89.3322 65.135 90.7189C63.9655 89.4401 62.826 88.1685 61.681 86.8907L61.3911 86.5673C61.2624 86.5936 61.133 86.6114 61.0036 86.6114ZM68.192 87.9888C68.192 87.6575 68.192 87.3439 68.1667 87.2215C67.8305 87.2215 67.1053 87.2734 66.5884 87.3346C66.6137 87.2045 66.6313 87.0822 66.6313 86.9513C66.6313 86.8205 66.6137 86.6981 66.5884 86.5673L66.8327 86.5756C67.4656 86.5973 67.8778 86.6114 68.8314 86.6114C69.8077 86.6114 70.2162 86.5966 70.8386 86.5739L71.0223 86.5673C70.9955 86.6981 70.9787 86.8205 70.9787 86.9513C70.9787 87.0822 70.9955 87.2045 71.0223 87.3346C70.556 87.2734 69.8308 87.2215 69.4869 87.2215C69.4693 87.3439 69.4693 87.6575 69.4693 87.9888V90.1692C69.4693 91.1463 69.4869 91.8176 69.5382 92.5849L69.4536 92.5771C69.2801 92.5608 69.074 92.5415 68.8314 92.5415C68.5868 92.5415 68.38 92.561 68.2066 92.5772L68.1238 92.5849C68.1751 91.8176 68.192 91.1463 68.192 90.1692V87.9888ZM27.2606 94.8906C27.7874 94.8906 28.1236 95.1438 28.3043 95.6409H28.4338L28.4468 95.5966L28.4468 95.5966C28.5511 95.2403 28.6109 95.0365 28.7102 94.7768C28.3825 94.5159 27.9161 94.3502 27.2958 94.3502C26.2689 94.3502 25.3545 95.013 25.3545 96.2162C25.3545 97.3068 26.1343 97.6909 26.8349 98.0359C27.4061 98.3173 27.9245 98.5726 27.9245 99.1638C27.9245 99.6524 27.5883 100.053 26.916 100.053C26.2168 100.053 25.8201 99.6176 25.7252 99.112H25.5613C25.5016 99.5037 25.4234 99.8181 25.3116 100.219C25.5613 100.411 26.079 100.595 26.7008 100.595C28.0715 100.595 28.9859 99.7918 28.9859 98.6234C28.9859 97.5275 28.1831 97.1371 27.4659 96.7883C26.887 96.5067 26.3638 96.2523 26.3638 95.6758C26.3638 95.2569 26.7345 94.8906 27.2606 94.8906ZM32.2233 97.0796C32.6269 96.5059 33.0232 95.605 33.3687 94.8194L33.369 94.8186C33.4226 94.6969 33.4749 94.5779 33.5259 94.4633C33.5548 94.4673 33.5838 94.4717 33.6129 94.4761L33.6129 94.4761L33.6129 94.4761L33.6129 94.4761L33.6129 94.4761C33.7137 94.4913 33.8156 94.5067 33.9225 94.5067C34.0228 94.5067 34.1178 94.4933 34.2183 94.4792C34.2568 94.4738 34.2961 94.4683 34.3368 94.4633C33.957 95.1176 33.0855 96.7041 32.5342 97.8035C32.5342 97.9418 32.5298 98.0823 32.5255 98.2239L32.5255 98.2241C32.521 98.368 32.5166 98.5132 32.5166 98.6583C32.5166 99.2336 32.5257 99.8267 32.6023 100.481C32.5499 100.477 32.497 100.473 32.4438 100.469C32.2529 100.453 32.0583 100.438 31.8702 100.438C31.682 100.438 31.4892 100.453 31.299 100.468C31.2446 100.473 31.1904 100.477 31.1366 100.481C31.147 100.258 31.1656 100.03 31.1842 99.8033V99.8033V99.8033V99.8033V99.8033V99.8033C31.2121 99.4626 31.24 99.1225 31.24 98.7977C31.24 98.5667 31.2333 98.3357 31.2265 98.1042V98.1041V98.104V98.104V98.1039V98.1038L31.2231 97.9863C30.6274 96.8264 29.6441 94.9604 29.3768 94.4633C29.437 94.4675 29.4972 94.472 29.5574 94.4766C29.756 94.4916 29.9547 94.5067 30.1533 94.5067C30.3493 94.5067 30.5412 94.492 30.7352 94.4771L30.7353 94.4771C30.7968 94.4723 30.8585 94.4676 30.9206 94.4633C31.3181 95.3266 31.9644 96.6785 32.2064 97.0796H32.2233ZM36.591 94.8906C37.1171 94.8906 37.4533 95.1438 37.6348 95.6409H37.7635L37.7765 95.5966L37.7765 95.5965L37.7765 95.5964C37.8809 95.2403 37.9406 95.0364 38.0399 94.7768C37.7122 94.5159 37.2466 94.3502 36.6255 94.3502C35.5986 94.3502 34.685 95.013 34.685 96.2162C34.685 97.3068 35.4648 97.6909 36.1653 98.0359C36.7365 98.3173 37.255 98.5726 37.255 99.1638C37.255 99.6524 36.9188 100.053 36.2457 100.053C35.5473 100.053 35.1498 99.6176 35.0556 99.112H34.8918C34.8313 99.5037 34.7531 99.8181 34.6413 100.219C34.8918 100.411 35.4087 100.595 36.0305 100.595C37.402 100.595 38.3156 99.7918 38.3156 98.6234C38.3156 97.5275 37.5128 97.1371 36.7956 96.7883C36.2167 96.5067 35.6935 96.2523 35.6935 95.6758C35.6935 95.2569 36.0642 94.8906 36.591 94.8906ZM40.3019 95.8849C40.3019 95.5535 40.3019 95.2399 40.2759 95.1176C39.9397 95.1176 39.2145 95.1695 38.6976 95.2306C38.7236 95.0998 38.7405 94.9774 38.7405 94.8474C38.7405 94.7157 38.7236 94.5942 38.6976 94.4633L38.9637 94.4721C39.585 94.4929 39.9985 94.5067 40.9406 94.5067C41.9062 94.5067 42.3164 94.4922 42.9273 94.4705L43.1315 94.4633C43.1047 94.5942 43.0886 94.7157 43.0886 94.8474C43.0886 94.9774 43.1047 95.0998 43.1315 95.2306C42.6651 95.1695 41.9407 95.1176 41.5961 95.1176C41.5785 95.2399 41.5785 95.5535 41.5785 95.8849V98.0652C41.5785 99.0424 41.5961 99.7137 41.6474 100.481L41.5852 100.475C41.4073 100.458 41.1944 100.438 40.9406 100.438C40.6849 100.438 40.4705 100.458 40.2925 100.475L40.233 100.481C40.2843 99.7137 40.3019 99.0424 40.3019 98.0652V95.8849ZM43.8062 94.4633C43.8583 95.2306 43.8759 95.9027 43.8759 96.879V98.0652C43.8759 99.0424 43.8583 99.7137 43.8062 100.481L43.8221 100.479C44.0106 100.462 44.2678 100.438 45.6357 100.438C46.1988 100.438 46.5664 100.455 46.8434 100.468C46.9567 100.474 47.0549 100.478 47.1451 100.481L47.1419 100.462L47.1419 100.462C47.1255 100.365 47.1106 100.278 47.1106 100.106C47.1106 99.946 47.1235 99.8595 47.1385 99.7587L47.1451 99.7137C46.4804 99.7919 45.8164 99.8267 45.1693 99.8267C45.1517 99.4783 45.1441 99.1028 45.1441 98.7365C45.1441 98.548 45.146 98.3592 45.1479 98.1717C45.1498 97.9864 45.1517 97.8024 45.1517 97.6208C45.808 97.6208 46.4551 97.6464 47.1106 97.699C47.1036 97.6495 47.0971 97.6077 47.0915 97.571L47.0915 97.5709C47.0763 97.4722 47.067 97.4113 47.067 97.3413C47.067 97.2282 47.0754 97.1493 47.1106 96.9487C46.4551 96.9836 45.903 97.0014 45.1517 97.0192C45.1517 96.382 45.1517 95.754 45.1954 95.1176C45.4542 95.1176 46.4896 95.1788 47.1451 95.2221C47.142 95.1992 47.1389 95.1779 47.136 95.1574L47.136 95.1573L47.136 95.1573C47.1221 95.0606 47.1106 94.9809 47.1106 94.8296C47.1106 94.6724 47.1275 94.5679 47.1451 94.4633C46.9115 94.4889 46.1871 94.5067 45.3416 94.5067C45.0517 94.5067 44.7589 94.4954 44.4662 94.484L44.4662 94.484L44.4661 94.484C44.2455 94.4755 44.0251 94.467 43.8062 94.4633ZM48.82 96.5221C48.656 97.7112 48.5777 98.9079 48.4997 100.099L48.4746 100.481C48.3375 100.455 48.1989 100.438 48.0703 100.438C47.9317 100.438 47.803 100.455 47.6644 100.481C48.0266 98.4748 48.3107 96.4695 48.5527 94.4633C48.6737 94.4889 48.7863 94.5067 48.9065 94.5067C49.0183 94.5067 49.1393 94.4889 49.2511 94.4633C49.8814 95.85 50.6142 97.4025 51.2445 98.632C51.9253 97.3328 52.6329 95.85 53.2539 94.4633C53.3749 94.4889 53.5036 94.5067 53.6245 94.5067C53.7455 94.5067 53.8665 94.4889 53.9868 94.4633L54.0483 95.015C54.2642 96.9517 54.5328 99.3607 54.7288 100.481C54.496 100.455 54.2625 100.438 54.0304 100.438C53.7976 100.438 53.5556 100.455 53.3144 100.481C53.2539 99.2684 53.1069 97.7865 52.969 96.4338H52.9514C52.3051 97.7865 51.6672 99.1291 51.0454 100.481C50.9941 100.472 50.9336 100.463 50.8815 100.463C50.8302 100.463 50.7697 100.472 50.7176 100.481C50.105 99.1639 49.4847 97.8384 48.8376 96.5221H48.82ZM57.1827 94.8906C57.7096 94.8906 58.0458 95.1438 58.2265 95.6409H58.3559L58.3689 95.5966C58.4733 95.2403 58.5331 95.0365 58.6324 94.7768C58.3046 94.5159 57.8383 94.3502 57.218 94.3502C56.191 94.3502 55.2767 95.013 55.2767 96.2162C55.2767 97.3068 56.0565 97.6909 56.757 98.0359C57.3282 98.3173 57.8467 98.5726 57.8467 99.1638C57.8467 99.6524 57.5105 100.053 56.8381 100.053C56.1397 100.053 55.7423 99.6176 55.6481 99.112H55.4835C55.4237 99.5037 55.3456 99.8181 55.2338 100.219C55.4835 100.411 56.0011 100.595 56.6229 100.595C57.9945 100.595 58.9081 99.7918 58.9081 98.6234C58.9081 97.5275 58.1053 97.1371 57.3881 96.7883C56.8092 96.5067 56.286 96.2523 56.286 95.6758C56.286 95.2569 56.6566 94.8906 57.1827 94.8906Z" fill="#202020"/>
<path fill-rule="evenodd" clip-rule="evenodd" d="M43.2299 14.4432C43.2296 14.4434 43.2293 14.4436 43.229 14.4438L43.5302 12.8674L43.5323 12.8674L43.2299 14.4432ZM43.2299 14.4432C44.3876 13.6457 44.2215 12.4942 44.2215 12.4942C44.2215 11.6301 43.726 10.886 43.01 10.5245L42.9909 10.4672C42.5153 10.015 42.5643 8.35187 42.5643 8.35187C42.5643 8.35187 42.8056 8.24966 43.1678 8.41768C43.1678 8.41768 43.6732 8.61202 43.6732 8.94263H43.9879V7.08516H43.6732C43.6732 7.41577 43.1678 7.61011 43.1678 7.61011H43.0353L42.5643 7.61863C42.5643 7.61863 42.3951 7.69064 42.3951 7.23537L42.4602 6.62524C42.4602 6.62524 42.6532 6.1119 42.9794 6.1119V5.79523H41.1384V6.1119C41.4708 6.1119 41.6638 6.62524 41.6638 6.62524L41.7181 7.23537V7.26247C41.7181 7.71774 41.5183 7.61863 41.5183 7.61863L41.0726 7.61011H40.9141C40.9141 7.61011 40.4071 7.41577 40.4071 7.08516H40.0977V8.94263H40.4071C40.4071 8.61202 40.9141 8.41768 40.9141 8.41768L41.0519 8.35729C41.0519 8.35729 41.2771 8.32322 41.5183 8.35187C41.5183 8.35187 41.5305 10.0607 41.0933 10.4672L41.0427 10.5407C40.3443 10.9077 39.8665 11.6425 39.8665 12.4942C39.8665 12.4942 39.7577 13.9258 40.8926 14.4229L43.229 14.4438H43.2298L43.2299 14.4432ZM40.5702 12.8604L43.5302 12.8674L43.5315 12.8604C43.5445 12.8595 43.5577 12.8587 43.5709 12.8579C43.7727 12.8452 44.0038 12.8307 44.0232 12.4965C44.0331 12.2852 43.9933 12.0846 43.7812 12.0103L43.2122 11.9878H42.4219V10.5361C42.4219 10.3619 42.2902 10.2728 42.2902 10.2728L41.9479 10.2674C41.8077 10.2674 41.7641 10.5361 41.7641 10.5361V11.9878H40.8926L40.355 12.0103C40.1406 12.0846 40.0656 12.2852 40.0656 12.4965C40.0656 12.7234 40.2945 12.8457 40.5702 12.8604ZM49.3115 14.2727C48.8604 14.2727 48.4944 13.9033 48.4944 13.4481C48.4944 12.9912 48.8604 12.6219 49.3115 12.6219C49.7625 12.6219 50.1271 12.9912 50.1271 13.4481C50.1271 13.8698 49.8143 14.2178 49.4096 14.2668C49.4725 14.2622 49.5372 14.2583 49.6042 14.255C50.0735 14.2326 50.6522 14.2405 51.2614 14.347C51.0047 14.2078 50.8305 13.9338 50.8305 13.6191C50.8305 13.1631 51.1951 12.793 51.6469 12.793C52.0979 12.793 52.4655 13.1631 52.4655 13.6191C52.4655 14.0541 52.13 14.4113 51.7068 14.4423C52.0652 14.5338 52.4275 14.6639 52.7782 14.8458C52.746 14.7572 52.7284 14.6614 52.7284 14.5615C52.7284 14.1047 53.0944 13.7354 53.5447 13.7354C53.9965 13.7354 54.361 14.1047 54.361 14.5615C54.361 15.0028 54.0186 15.3633 53.5862 15.3851C53.8358 15.596 54.0713 15.8441 54.2856 16.1357C54.2857 15.6797 54.6509 15.3112 55.1012 15.3112C55.553 15.3112 55.9183 15.6798 55.9183 16.1358C55.9183 16.5926 55.553 16.9612 55.1012 16.9612C54.968 16.9612 54.8422 16.9289 54.7311 16.8717C54.8172 17.0457 54.8971 17.2309 54.9701 17.428C55.0244 17.5747 55.07 17.7239 55.1078 17.8745C55.2164 17.5474 55.5221 17.311 55.8811 17.311C56.3321 17.311 56.6982 17.6819 56.6982 18.1371C56.6982 18.5924 56.3321 18.9633 55.8811 18.9633C55.6198 18.9633 55.3867 18.838 55.2373 18.6436C55.2799 19.0975 55.2679 19.5465 55.2274 19.9606C55.3665 19.7065 55.634 19.5347 55.9411 19.5347C56.3929 19.5347 56.7575 19.904 56.7575 20.3608C56.7575 20.8161 56.3929 21.1847 55.9411 21.1847C55.5568 21.1847 55.2343 20.9161 55.1482 20.5543C55.0534 21.1185 54.9234 21.5677 54.8501 21.7967C55.0513 21.5911 55.3477 21.4953 55.6393 21.5819C56.0727 21.7097 56.3224 22.1665 56.1968 22.6039C56.0807 23.0065 55.6486 23.251 55.2431 23.1897L55.6509 23.9497L53.3549 29.6723L53.4119 29.6504L53.9372 31.0162L54.0312 31.2606L53.7836 31.3458L52.3912 31.8247L52.1236 32.7237C52.1236 32.7237 47.9133 30.98 42.0443 30.8275V30.1477L42.044 30.1474L42.0443 30.1446L42.8002 29.392L42.8006 29.392L42.755 29.4377C42.755 29.4377 46.2715 29.6468 46.2723 29.6313C46.3128 29.9147 46.5633 30.092 46.8987 30.1539L48.6516 30.4752C49.0605 30.5496 49.4434 30.3266 49.5077 29.9766C49.5697 29.6228 49.2887 29.2782 48.8775 29.2015L47.1292 28.8841C46.7187 28.8074 46.3373 29.0312 46.2761 29.3812C46.2728 29.4 46.2726 29.506 46.2725 29.5747V29.5748C46.2725 29.6023 46.2725 29.6238 46.2723 29.6313C46.27 29.6136 42.8445 29.3949 42.8006 29.392L43.0628 29.1295L42.0443 28.0967L41.0373 29.1295L41.2632 29.3564L41.2624 29.3564L41.2211 29.3146C41.2211 29.3146 38.3362 29.3884 38.0944 29.4321C38.0841 29.4308 38.0786 29.4294 38.0783 29.4276C38.0239 29.0761 37.6502 28.8585 37.2398 28.9259L35.4853 29.2155C35.0733 29.2836 34.7862 29.6235 34.8413 29.9766C34.8995 30.3289 35.2786 30.5573 35.689 30.4915L37.4465 30.2011C37.7345 30.1539 38.1495 30.0695 38.0783 29.4377C38.0781 29.4359 38.0836 29.434 38.0944 29.4321C38.3356 29.4609 41.2082 29.3584 41.2624 29.3564L42.044 30.1474C42.0393 30.1948 41.9773 30.8253 42.0443 30.8275L41.6836 30.8267C35.7028 30.8546 31.9313 32.7183 31.9313 32.7183L31.4925 31.6947L31.5701 31.4587L31.4668 31.7635L30.2354 31.3461L29.9968 31.2653L30.077 31.0264L30.6065 29.4497L28.4033 23.9497L28.8081 23.1952C28.3973 23.2677 27.9536 23.022 27.8358 22.6139C27.7086 22.1757 27.959 21.7173 28.3917 21.5911C28.7029 21.4994 29.0201 21.6132 29.2204 21.847C29.1495 21.6317 28.9994 21.1336 28.8966 20.4974C28.8359 20.8931 28.4982 21.1948 28.0916 21.1948C27.6405 21.1948 27.2745 20.8262 27.2745 20.3694C27.2745 19.9141 27.6405 19.5448 28.0916 19.5448C28.4212 19.5448 28.7056 19.7434 28.8338 20.029C28.787 19.5885 28.7714 19.1061 28.8193 18.6186C28.6718 18.8318 28.4273 18.9717 28.1496 18.9717C27.6993 18.9717 27.334 18.6001 27.334 18.1448C27.334 17.6903 27.6993 17.321 28.1496 17.321C28.5241 17.321 28.8383 17.5738 28.9356 17.9186C28.9754 17.7531 29.0245 17.589 29.0841 17.428C29.1578 17.229 29.2385 17.0421 29.3256 16.8666C29.208 16.9327 29.0725 16.9703 28.9282 16.9703C28.4779 16.9703 28.1134 16.6002 28.1134 16.1449C28.1134 15.6897 28.4779 15.3203 28.9282 15.3203C29.3808 15.3203 29.7461 15.6897 29.7461 16.1449L29.7458 16.167C29.9631 15.8661 30.2028 15.6107 30.4573 15.3942C30.0208 15.3784 29.6722 15.0154 29.6722 14.5702C29.6722 14.1141 30.0367 13.744 30.487 13.744C30.9388 13.744 31.3041 14.1141 31.3041 14.5702C31.3041 14.6713 31.286 14.7682 31.253 14.8578C31.6007 14.675 31.9599 14.5436 32.3159 14.4505C31.8982 14.4154 31.57 14.0607 31.57 13.6272C31.57 13.1719 31.9345 12.8026 32.384 12.8026C32.8343 12.8026 33.2019 13.1719 33.2019 13.6272C33.2019 13.9377 33.0321 14.2078 32.7819 14.349C33.3953 14.2406 33.9783 14.2325 34.4508 14.255C34.4778 14.2564 34.5044 14.2578 34.5307 14.2593C34.1717 14.1723 33.9046 13.8455 33.9046 13.4566C33.9046 13.0006 34.2707 12.632 34.7217 12.632C35.1728 12.632 35.5373 13.0006 35.5373 13.4566C35.5373 13.8884 35.2095 14.2436 34.7909 14.2791C35.3271 14.3309 35.7417 14.4458 36.3609 14.6847C36.196 14.5338 36.0924 14.3157 36.0924 14.0731C36.0924 13.6179 36.4576 13.247 36.9072 13.247C37.3582 13.247 37.725 13.6179 37.725 14.0731C37.725 14.5284 37.3582 14.8977 36.9072 14.8977L36.8918 14.8976C37.0788 14.9745 37.2839 15.0601 37.5122 15.1555L37.6755 15.2237C38.0166 15.3658 38.3637 15.4625 38.6906 15.5279C38.4061 15.399 38.2081 15.11 38.2081 14.7737C38.2081 14.3184 38.5734 13.9498 39.0244 13.9498C39.4747 13.9498 39.8408 14.3184 39.8408 14.7737C39.8408 15.2044 39.5153 15.5573 39.1007 15.5963C39.8344 15.6948 40.3849 15.6464 40.3849 15.6464V16.7358C40.306 16.7358 38.256 16.6607 36.4663 15.7835C36.4663 15.7835 34.0977 14.5353 31.8616 15.8082C31.7827 15.8547 29.8752 17.0269 29.905 19.3807C29.905 19.3807 29.905 20.6923 30.5261 21.9033L30.7773 22.316C30.7773 22.316 30.2305 23.0144 30.1501 24.1564C30.1501 24.1564 30.0865 24.7874 30.268 25.5741C30.3132 25.7723 30.873 25.6422 30.9235 25.235C30.9733 24.8269 30.9725 24.1161 30.8477 23.465L30.9733 22.789L33.2163 27.9859L32.6366 27.9604C32.6366 27.9604 31.8302 26.8393 31.4021 26.6612C30.9733 26.4831 30.7466 26.7634 30.7466 26.7634C30.7466 26.7634 32.1687 29.5933 34.4071 27.7815C34.4071 27.7815 35.8652 26.535 34.574 25.2907C34.574 25.2907 33.7906 24.7812 33.5104 25.5176C33.5104 25.5176 33.3993 26.0255 33.7355 26.1966C33.7355 26.1966 32.851 26.3329 32.4605 25.3705C32.4605 25.3705 31.7291 23.8846 33.3993 24.0441C33.3993 24.0441 34.4002 24.3941 34.1268 23.4789C34.1268 23.4789 33.6788 21.9497 34.352 20.9889C34.352 20.9889 35.3054 21.3845 35.5857 23.0833C35.5857 23.0833 35.5857 23.9326 36.3683 23.3659C37.6648 22.5165 37.9688 23.8475 37.9688 23.8475C38.3057 24.9206 37.0966 25.5176 37.0966 25.5176C37.3562 25.156 37.1004 24.6968 37.1004 24.6968C36.8569 24.2439 36.3438 24.6519 36.1301 24.8533L36.0336 24.9477L36.0189 24.9421L35.7618 24.7952C35.7618 24.7952 35.7556 24.8108 35.7419 24.8358L35.7411 24.8354C35.7411 24.8354 35.8476 24.6217 35.8476 24.4537C35.8476 24.0619 35.5497 23.7197 35.1124 23.712C34.6759 23.7042 34.378 24.1022 34.378 24.4537C34.378 24.806 34.6231 25.1963 35.1124 25.1963C35.5059 25.1963 35.6862 24.9377 35.7419 24.8358L36.0189 24.9421L36.0329 24.95C35.8307 26.5311 36.8791 27.1327 36.8791 27.1327C37.7253 27.8257 38.6641 27.7235 38.6159 27.7266C39.5402 27.6375 39.8687 27.4409 39.8687 27.4409C41.7189 26.216 41.2617 24.9214 41.2617 24.9214H40.5771C39.459 25.3194 38.972 26.4235 38.972 26.4235V26.9887H38.6373V22.007H39.0294C39.0846 23.4789 40.597 23.7058 40.597 23.7058H41.3253V22.7999C41.1016 21.8382 39.9805 21.3288 39.9805 21.3288H39.4215V20.8123H44.7353V21.3288H44.1763C44.1763 21.3288 43.0552 21.8382 42.8308 22.7999V23.7058H43.5598C43.5598 23.7058 45.0715 23.4789 45.1266 22.007H45.5187V26.9887H45.1825V26.4235C45.1825 26.4235 44.6986 25.3194 43.5797 24.9214H42.8339C42.8339 24.9214 42.7563 24.855 42.7449 24.8335C42.8316 24.6954 42.8856 24.5617 42.8936 24.3662C42.912 23.9102 42.5291 23.5409 42.0773 23.5409C41.627 23.5409 41.2625 23.9094 41.2625 24.3662C41.2625 24.8215 41.5948 25.1932 42.0773 25.1901C42.4161 25.1887 42.6629 24.9526 42.7271 24.8613C42.7192 24.8732 42.7112 24.8853 42.7029 24.8974L42.8239 24.9214H42.8339C42.8339 25.2961 42.9028 26.4792 44.2866 27.4409C44.2866 27.4409 44.5546 27.6275 45.4268 27.7235C45.3908 27.7235 46.3289 27.8257 47.1751 27.1327C47.1751 27.1327 48.2235 26.5311 48.0213 24.95C48.0213 24.95 47.2662 24.1161 46.9538 24.6968C46.9538 24.6968 46.698 25.156 46.9576 25.5176C46.9576 25.5176 45.7806 25.0058 46.1176 23.9326C46.1176 23.9326 46.3894 22.5165 47.6859 23.3659C48.4685 23.9326 48.4685 23.0833 48.4685 23.0833C48.7496 21.3845 49.703 20.9889 49.703 20.9889C50.3754 21.9497 49.9274 23.4789 49.9274 23.4789C49.654 24.3941 50.6556 24.0441 50.6556 24.0441C52.2339 23.6841 51.5945 25.3705 51.5945 25.3705C51.2032 26.3329 50.3187 26.1966 50.3187 26.1966C50.6556 26.0255 50.5438 25.5176 50.5438 25.5176C50.3459 24.9969 49.8744 25.1001 49.6204 25.1817L49.6394 25.1668L49.4625 25.0244L49.4551 25.0286C49.5316 24.9756 49.7301 24.7876 49.7329 24.429C49.7359 23.9799 49.3523 23.6857 49.0245 23.6857C48.6669 23.6857 48.2533 23.9234 48.2633 24.4584C48.2702 24.8254 48.5811 25.1815 48.9992 25.1723C49.2106 25.167 49.3215 25.1042 49.4526 25.03L49.4551 25.0286C49.448 25.0335 49.442 25.0372 49.4373 25.0399C49.4487 25.0329 49.5958 25.163 49.6042 25.187L49.6204 25.1817L49.4809 25.2907C48.189 26.535 49.6471 27.7815 49.6471 27.7815C51.8863 29.5933 53.3076 26.7634 53.3076 26.7634C53.3076 26.7634 53.0809 26.4831 52.6528 26.6612C52.224 26.84 51.4176 27.9604 51.4176 27.9604L50.8387 27.9859L53.0809 22.789L53.2065 23.465C53.0824 24.1161 53.0809 24.8269 53.1314 25.235C53.1812 25.6422 53.741 25.7723 53.7869 25.5741C53.9684 24.7874 53.9049 24.1564 53.9049 24.1564C53.8237 23.0144 53.2769 22.3152 53.2769 22.3152L53.5281 21.9033C54.1499 20.6923 54.1492 19.3807 54.1492 19.3807C54.179 17.0269 52.2722 15.8547 52.1926 15.809C49.9565 14.5353 47.5879 15.7835 47.5879 15.7835C45.7982 16.6607 43.8125 16.7335 43.7337 16.7335V15.5698C43.7337 15.5698 44.2126 15.6414 44.8783 15.5816C44.4891 15.5185 44.1914 15.1772 44.1914 14.7667C44.1914 14.3114 44.5575 13.9421 45.0085 13.9421C45.458 13.9421 45.8226 14.3114 45.8226 14.7667C45.8226 15.1031 45.6236 15.393 45.3383 15.5214C45.669 15.4642 46.0247 15.3711 46.3787 15.2237L46.5383 15.157L46.5384 15.157C46.7791 15.0565 46.994 14.9667 47.1892 14.8866C47.168 14.8883 47.1466 14.8891 47.125 14.8891C46.6732 14.8891 46.3087 14.5198 46.3087 14.0645C46.3087 13.6085 46.6732 13.2392 47.125 13.2392C47.5753 13.2392 47.9429 13.6085 47.9429 14.0645C47.9429 14.3237 47.8237 14.5551 47.638 14.7063C48.3185 14.441 48.7505 14.3216 49.3413 14.2721C49.3314 14.2725 49.3215 14.2727 49.3115 14.2727ZM42.7363 24.847C42.7411 24.8389 42.7435 24.8328 42.7435 24.8293C42.7435 24.8303 42.744 24.8318 42.7449 24.8335L42.7363 24.847ZM42.7363 24.847L42.7271 24.8613C42.7308 24.856 42.7339 24.8512 42.7363 24.847ZM52.0624 30.294L52.9905 29.9624L53.3716 30.9532L52.4157 31.282L52.0624 30.294ZM31.9566 30.2832L31.6274 31.2844L30.6362 30.9485L30.9736 29.9437L31.9566 30.2832Z" fill="#202020"/>
<path fill-rule="evenodd" clip-rule="evenodd" d="M42.021 14.89C42.021 14.89 42.4851 14.89 42.4851 15.3685C42.4851 15.8114 42.0203 15.816 42.0203 15.816V16.0421C42.0203 16.0421 42.4851 16.0421 42.4851 16.5276C42.4851 16.9217 42.0203 16.9643 42.0203 16.9643V17.1478C42.0203 17.1478 42.4882 17.1486 42.4851 17.6085C42.482 18.0606 42.0203 18.0692 42.0203 18.0692V18.2418C42.0203 18.2418 42.4905 18.2821 42.4851 18.7064C42.4889 19.1678 42.021 19.1678 42.021 19.1678L42.0203 19.397C42.0203 19.397 42.4851 19.4102 42.4851 19.867C42.4851 20.3006 42.0203 20.3277 42.0203 20.3277V21.3211H43.7563V14.3922L42.021 14.41V14.89" fill="#202020"/>
<path fill-rule="evenodd" clip-rule="evenodd" d="M42.0198 14.89C42.0198 14.89 41.555 14.89 41.555 15.3685C41.555 15.8114 42.0198 15.816 42.0198 15.816V16.0421C42.0198 16.0421 41.555 16.0421 41.555 16.5276C41.555 16.9217 42.0198 16.9643 42.0198 16.9643V17.1478C42.0198 17.1478 41.555 17.1486 41.555 17.6085C41.555 18.0405 42.0198 18.0692 42.0198 18.0692V18.2418C42.0198 18.2418 41.5496 18.2821 41.555 18.7064C41.5512 19.1678 42.0198 19.1678 42.0198 19.1678V19.397C42.0198 19.397 41.555 19.4102 41.555 19.867C41.555 20.3006 42.0198 20.3277 42.0198 20.3277V21.3211H40.2838V14.3922L42.0198 14.41V14.89" fill="#202020"/>
</svg>
