
<svg width="185px" height="32px" viewBox="0 0 185 32" version="1.1" xmlns="http://www.w3.org/2000/svg" xmlns:xlink="http://www.w3.org/1999/xlink">
    <g id="Page-1" stroke="none" stroke-width="1" fill="none" fill-rule="evenodd">
        <g id="导航/footer" transform="translate(-434.000000, -398.000000)">
            <g id="CI" transform="translate(434.000000, 398.000000)">
                <path d="M181.288733,8.09035676 L181.288733,30.2670054 C181.288733,30.9325189 181.8434,31.4721946 182.5274,31.4721946 L184.718067,31.4721946 L184.718067,9.29554595 C184.718067,8.63003243 184.1634,8.09035676 183.478733,8.09035676 L181.288733,8.09035676 Z" id="Fill-20" fill="#1D2143"></path>
                <path d="M169.391204,22.9754086 L174.608138,22.9754086 L174.608138,19.1521855 L169.391204,19.1521855 L169.391204,22.9754086 Z M174.608796,15.8445838 L169.391204,15.8445838 L169.391204,10.2005321 C169.391204,9.53759027 168.844405,9 168.170765,9 L166,9 L166,24.7994679 C166,25.4624097 166.546142,26 167.221096,26 L176.779561,26 C177.453201,26 178,25.4624097 178,24.7994679 L178,10.2005321 C178,9.53759027 177.453201,9 176.779561,9 L174.608796,9 L174.608796,15.8445838 Z" id="Fill-23" fill="#1D2143"></path>
                <path d="M147.057787,15.7595969 C147.057787,13.7545417 148.573738,12.2424568 150.582974,12.2424568 L153.415689,12.2424568 C155.426262,12.2424568 156.941545,13.7545417 156.941545,15.7595969 C156.941545,17.764652 155.426262,19.2767369 153.415689,19.2767369 L150.582974,19.2767369 C148.573738,19.2767369 147.057787,17.764652 147.057787,15.7595969 M160.881813,26.8942214 L153.735189,26.8942214 L153.735189,22.4913273 C157.406757,22.2100092 160.105791,19.4127516 160.105791,15.7595969 C160.105791,11.9060693 157.105305,9 153.1256,9 L150.855685,9 C146.886674,9 143.893541,11.9060693 143.893541,15.7595969 C143.893541,19.4180595 146.593911,22.217971 150.264143,22.4919908 L150.264143,26.8942214 L141,26.8942214 L141,27.8967489 C141,29.0565227 141.94914,30 143.11685,30 L163,30 L163,28.9961455 C163,27.8370352 162.049523,26.8942214 160.881813,26.8942214" id="Fill-18" fill="#121838"></path>
                <path d="M118,24 L118,25.8464412 C118,26.51728 118.556099,27.0612741 119.241865,27.0612741 L127.263861,27.0612741 L127.263861,29.7851672 C127.263861,30.456006 127.819961,31 128.505727,31 L130.736139,31 L130.736139,27.0612741 L140,27.0612741 L140,25.2148328 C140,24.543994 139.443901,24 138.758135,24 L118,24 Z" id="Fill-26" fill="#1D2143"></path>
                <path d="M125.554213,18.0003409 C125.554213,16.8874872 126.526644,16.0801227 127.865952,16.0801227 L130.134048,16.0801227 C131.474038,16.0801227 132.445787,16.8874872 132.445787,18.0003409 C132.445787,19.1125128 131.474038,19.9198773 130.134048,19.9198773 L127.865952,19.9198773 C126.526644,19.9198773 125.554213,19.1125128 125.554213,18.0003409 L125.554213,18.0003409 Z M128.08417,13 C124.615879,13 122,15.1493352 122,18.0003409 C122,20.8506648 124.615879,23 128.08417,23 L129.90151,23 C133.378665,23 136,20.8506648 136,18.0003409 C136,15.1493352 133.378665,13 129.90151,13 L128.08417,13 Z" id="Fill-27" fill="#1D2143"></path>
                <path d="M136.772367,9.54777729 L130.717497,9.54777729 L130.717497,8.88672279 C130.717497,8.28060848 130.167475,8 129.488541,8 L127.283164,8 L127.283164,9.54777729 L120,9.54777729 L120,10.9029685 C120,11.5090829 120.550022,12 121.228294,12 L138,12 L138,10.6453995 C138,10.0392852 137.449978,9.54777729 136.772367,9.54777729" id="Fill-25" fill="#1D2143"></path>
                <path d="M104.11514,31 L107,31 L107,15.2062441 C107,14.5401293 106.501627,14 105.88486,14 L103,14 L103,29.794426 C103,30.4605408 103.498993,31 104.11514,31" id="Fill-5" fill="#2596E0"></path>
                <path d="M105.5,13 C106.880483,13 108,11.8804831 108,10.5 C108,9.11951694 106.880483,8 105.5,8 C104.119517,8 103,9.11951694 103,10.5 C103,11.8804831 104.119517,13 105.5,13" id="Fill-7" fill="#2596E0"></path>
                <path d="M95.783898,23.7777058 C95.783898,25.852884 94.0810789,27.2339598 92,27.2339598 C89.919571,27.2339598 88.216102,25.852884 88.216102,23.7777058 L88.216102,20.8165911 C88.216102,18.7414128 89.919571,17.3596889 92,17.3596889 C94.0810789,17.3596889 95.783898,18.7414128 95.783898,20.8165911 L95.783898,23.7777058 Z M92,13.5942968 L92,13.5942968 C90.6253961,13.5942968 89.3281339,13.9001944 88.1946543,14.455606 L88.1946543,9.16591056 C88.1946543,8.52235904 87.6714599,8 87.0254285,8 L84,8 L84,23.4931951 C84,27.8807518 87.5999675,31 92,31 C96.4000325,31 100,27.8807518 100,23.4931951 L100,21.1198963 C100,16.7323396 96.4000325,13.5942968 92,13.5942968 L92,13.5942968 Z" id="Fill-11" fill="#2596E0"></path>
                <path d="M76.783898,23.5311092 C76.783898,25.6771419 75.0810789,27.1053729 73,27.1053729 C70.919571,27.1053729 69.216102,25.6771419 69.216102,23.5311092 L69.216102,20.4688908 C69.216102,18.3228581 70.919571,16.8939569 73,16.8939569 C75.0810789,16.8939569 76.783898,18.3228581 76.783898,20.4688908 L76.783898,23.5311092 Z M73.0006499,13 L73,13 C68.5999675,13 65,16.2451875 65,20.782552 L65,23.2368842 C65,27.7742488 68.5999675,31 73,31 L73.0006499,31 C77.4000325,31 81,27.7742488 81,23.2368842 L81,20.782552 C81,16.2451875 77.4000325,13 73.0006499,13 L73.0006499,13 Z" id="Fill-9" fill="#121838"></path>
                <path d="M57.6768909,13 L57.6768909,24.1617302 C57.6768909,25.1750307 57.1620443,26.1366939 56.2879402,26.6443501 C53.8472599,28.0606907 51.3217736,26.2909355 51.3217736,23.9585336 L51.3217736,14.2064379 C51.3217736,13.5405164 50.7842229,13 50.1211325,13 L47,13 L47,24.3568794 C47,28.0103945 49.9768953,31 53.6148778,31 L55.3837867,31 C59.0231047,31 62,28.0103945 62,24.3568794 L62,14.2064379 C62,13.5405164 61.4617816,13 60.7980234,13 L57.6775587,13 L57.6768909,13 Z" id="Fill-3" fill="#121838"></path>
                <path d="M39.6488258,8 L39.6488258,17.1148683 L30.3511742,17.1148683 L30.3511742,9.18172731 C30.3511742,8.52944536 29.8077831,8 29.1376456,8 L26,8 L26,29.8182727 C26,30.4705546 26.5433911,31 27.2128544,31 L30.3511742,31 L30.3511742,20.8196721 L39.6488258,20.8196721 L39.6488258,29.8182727 C39.6488258,30.4705546 40.1922169,31 40.8623544,31 L44,31 L44,9.18172731 C44,8.52944536 43.4566089,8 42.7871456,8 L39.6488258,8 Z" id="Fill-1" fill="#121838"></path>
                <path d="M16.8799844,13.0216385 C16.8427733,12.9983355 16.7909435,12.9816905 16.7550613,13.0382835 C16.6560532,14.1461739 15.4506784,16.5157545 13.9230286,18.6915875 C8.74071443,26.0726413 11.6936833,29.6300083 13.3542299,31.540853 C14.3183969,32.6507409 13.3542299,31.540853 15.7636506,30.4076622 C15.9523641,30.318445 20.4655425,27.9422064 20.9546031,22.5285903 C21.427716,17.2860846 18.074063,13.9817214 16.8799844,13.0216385" id="Fill-16" fill="#2596E0"></path>
                <path d="M13.2247936,9.95355671 C13.2247936,5.40932957 11.064758,1.50232972 9.42157651,0.229866471 C9.41509964,0.225220022 9.29657295,0.156850843 9.30628826,0.338726133 C9.30628826,0.341381247 9.30369751,0.342045026 9.30369751,0.344036361 C9.16703559,9.11785966 4.79385409,11.495514 2.38964057,14.6989087 C-3.15909253,22.0907453 2.00102847,30.19548 7.25571174,31.6929641 C10.19621,32.5313163 6.57693594,30.2100831 6.11124911,25.3074156 C5.54711388,19.3818655 13.2247936,14.8588793 13.2247936,9.95355671" id="Fill-13" fill="#1D2143"></path>
            </g>
        </g>
    </g>
</svg>